<svg xmlns="http://www.w3.org/2000/svg" aria-hidden="true" style="width: 0; height: 0; position: absolute;"><symbol id="icon-shroom-1" viewBox="10538.132 -1337.573 304.433 355.591"><path fill="#1d1d1d" d="m10657.88-1103.981-.823-.822-2.219-2.14-2.87-2.75-3.577-3.693-3.42-3.724-2.722-3.018-2.784-3.118-2.585-2.947-2.157-2.48-2.338-2.793-2.508-3.246-2.198-2.936-2.164-3.19-1.929-3.838-1.454-4.407-.966-4.981-.413-4.168-.128-3.187-.141-3.364-.115-3.489-.07-3.312-.058-3.014-.077-4.066-.048-5.04.414-4.68.894-4.268 1.449-4.476 1.595-3.8 1.391-2.656 1.594-2.707 1.578-2.87 1.39-2.966 1.17-2.9 1.755-3.844 2.395-3.539 2.62-2.103 3.309-1.998 3.989-2.01 4.228-2.104 4.1-2.174 3.808-2.14 3.269-2.104 2.744-1.99 2.415-1.843 2.582-2.567 2.26-3.037 1.823-2.93 2.532-2.947 3.674-2.221 4.622-1.509 4.792-1.572 4.257-1.92 3.404-1.78 2.878-1.383 2.835-1.377 2.554-1.78 2.883-2.309 4.214-2.73 3.813-2.248 2.624-1.583 2.518-1.576 2.525-1.538 3.282-1.926 3.503-2.231 2.588-2.061 2.783-2.376 2.974-2.668 2.37-2.619 2.694-2.705 2.896-2.425 3.485-2.3 3.57-1.755 3.785-1.422 4.671-1.782 4.025-1.46 3.732-1.113 3.425-.909 3.134-.848 3.402-.5 3.067.641 2.36 1.788 1.963 2.327 1.886 2.698 2.183 3.026 2.458 2.911 2.78 2.54 3.186 2.45 2.952 2.542 2.263 2.76 1.35 2.955.612 2.888.296 2.933.123 2.973.025 2.88-.004 3.578.01 3.625.318 3.313.59 3.293.665 3.475.754 3.947.759 3.557.77 3.304.77 3.383.726 3.56.597 3.732.467 3.905.355 4.652.14 4.033-.008 2.813-.029 2.811-.04 2.852-.046 2.914-.148 3.076-.41 3.272-.659 3.207-.776 2.937-1.147 3.789-1.411 4.312-1.384 3.574-1.27 3.302-1.243 3.461-1.419 3.824-1.334 4.496-1.029 5.209-.714 5.377-.527 5.007-.478 4.267-.588 3.82-.86 3.671-1.046 3.605-1.377 4.354-1.69 4.99-1.852 4.92-2.208 4.743-2.555 4.51-2.853 4.261-2.996 3.678-2.929 3.027-2.85 2.698-2.981 2.72-3.235 2.638-3.19 2.193-3.057 1.685-2.77 1.352-2.621 1.438-3.222 1.86-3.227 1.595-2.693 1.087-3.346 1.283-4.043 1.539-4.353 1.763-5.057 1.98-4.17 1.553-2.896 1.015-3.973 1.284-5.103 1.322-4.937.911-4.496.7-4.145.552-3.83.33-3.373.143-3.061.052-3.481-.361-3.86-.948-3.714-1.3-3.211-1.34-2.753-1.476-3.105-2.29-2.717-2.644-1.892-2.422-1.722-2.668-1.798-2.68-1.93-2.288-2.039-2.011-2.342-1.946-2.56-1.829-2.521-1.78-2.548-2.241-2.424-2.744-2.405-2.982-2.385-3.01-1.747-2.828-1.319-3.898-.646-2.544a3.809 3.809 0 0 1 7.548-1.023l.364 1.486 1.11 2.91 2.01 2.82 2.238 2.688 1.977 2.458 2.297 2.261 2.652 2.006 2.671 1.951 2.397 2.092 2.18 2.207 2.095 2.358 2.086 2.803 1.796 2.985 1.8 2.792 2.322 2.483 2.697 1.95 2.757 1.49 2.985 1.173 3.194 1.017 3.445.604 3.454.165 3.162-.01 3.502-.185 3.917-.417 4.362-.6 4.553-.784 4.625-1.18 3.71-1.252 2.75-1.101 2.746-1.168 3.743-1.654 4.655-2.095 4.293-1.831 3.635-1.488 3.483-1.36 3.448-1.534 3.066-1.7 3.04-1.589 3.327-1.56 3.213-1.757 2.858-2.068 2.936-2.514 2.883-2.595 2.712-2.482 2.645-2.83 2.623-3.485 2.46-4.032 2.126-4.153 1.788-4.424 1.612-4.9 1.43-4.717 1.18-3.877.993-3.159.76-3.24.602-3.736.536-4.55.388-3.967.315-2.854.376-2.989.487-2.974.595-2.832 1.113-3.601 1.487-3.941 1.388-3.548 1.434-3.317 1.448-3.243 1.456-4 1.42-4.85.869-3.98.26-2.805.03-2.881-.064-2.897-.123-4.181-.25-5.296-.44-4.77-.519-4.038-.522-3.458-.662-3.34-.785-3.36-.821-3.347-.803-3.267-.743-3.595-.713-3.948-.694-3.42-.552-3.205-.251-3.315-.047-3.735-.024-3.533-.073-3.289-.314-3.858-.892-3.287-1.746-2.33-2.735-2.218-2.985-2.255-2.503-2.226-2.276-2.564-2.177-2.84-2.04-3.035-2.37-2.445-2.864-.583-3.207.653-3.598.782-3.747 1.094-4.255 1.667-4.717 1.929-3.88 1.846-2.873 1.92-2.491 1.959-2.353 2.301-2.803 2.969-3.234 2.903-2.869 2.358-2.542 1.915-2.872 1.66-3.814 2.146-3.44 2.164-2.491 1.706-2.57 1.761-3.611 2.443-3.595 2.477-2.643 2.106-3.088 2.07-3.563 1.595-3.285 1.363-3.557 1.729-3.454 1.677-2.66 1.082-3.761 1.195-4.244 1.345-2.912 1.724-2.042 2.328-2.462 2.95-2.655 2.691-2.379 1.831-2.591 1.71-2.94 1.927-3.414 2.186-3.759 2.318-4.007 2.484-3.987 2.453-3.51 2.199-3.487 2.432-2.9 3.182-1.543 3.272-1.188 3.145-1.388 3.358-1.522 3.175-1.936 3.798-1.99 4.42-1.372 4.074-.954 3.579-.491 3.887-.093 4.883.003 4.01.062 2.937.153 3.166.295 3.401.352 3.407.425 4.256.645 4.686.953 3.923 1.253 3.395 1.623 3.033 1.954 3.08 1.966 3.142 2.421 3.51 2.626 3.28 2.598 2.719 2.987 2.822 3.01 2.73 3.722 3.472 3.624 3.519 2.783 2.784 2.24 2.238.823.824a3.114 3.114 0 0 1-4.404 4.404"></path><path fill="#1d1d1d" d="m10701.79-1210.984-.376 1.511-.85 2.996-1.333 3.81-1.43 3.882-.934 2.995-.43 3.181-.038 3.171 1.58 1.335 2.852-.875 2.458-1.945 2.257-2.284 2.425-1.994 1.744-2.603 1.02-3.195.82-2.99-1.11-2.309-3.037-1.907-1.705-1.123a3.798 3.798 0 0 1 3.37-6.809l1.462.753 2.835 1.92 2.73 2.199 2.324 3.234.863 3.684-.556 3.133-1.082 3.384-1.102 3.391-1.496 3-2.342 2.272-2.35 1.975-2.194 2.195-2.423 2.112-2.829 1.56-3.165.57-3.028-.14-3.04-.734-2.629-1.727-1.321-2.892-.239-3.312.207-3.153.44-3.019 1.046-3.27 1.485-3.717 1.506-4.198 1.05-3.893.28-1.531a3.216 3.216 0 0 1 6.286 1.357M10731.455-1168.908l-.08 1.573-.316 3.23-.582 3.233-.715 3.064-.764 4.021-.525 4.259-.117 3.31.955 2.71 1.633-.73 1.37-3.089 1.685-2.77 1.81-2.72 1.091-2.58.537-2.928.418-2.97-1.188-2.263-2.913-1.395-3.64-1.43-2.086-.857a3.791 3.791 0 0 1 3.219-6.864l1.225.534 2.719 1.046 2.96 1.151 2.704 1.332 2.521 1.826 1.702 2.812.317 3.24-.401 3.185-.456 3.062-.593 2.995-1.33 3.016-1.814 2.65-1.853 2.844-1.659 3.22-1.52 3.16-2.515 2.454-3.406.376-3.073-1.404-2.494-2.071-1.691-3.2-.475-3.521.288-3.075.536-3.895.623-3.79.593-2.915.77-4.137.448-4.293.007-1.574a3.038 3.038 0 0 1 6.075.168M10674.36-1162.99l-.081 1.226-.592 3.562-1.125 3.788-1.4 2.861-1.63 2.743-.873 2.765.33 3.091 1.524 3.046 2.747-.164 2.764-3.016 2.244-2.571 1.867-2.6.855-3.33-.213-3.308-1.407-3.181-2.02-2.826-1.862-1.42-.988-.3a3.683 3.683 0 0 1 2.582-6.899l1.698.688 2.944 1.941 2.265 2.726 2.117 3.135 1.715 3.899.616 3.717-.118 3.583-.572 3.684-1.323 2.765-2.365 2.405-2.371 2.332-1.886 2.74-2.274 3.355-3.229 2.147-3.521-.21-2.832-1.642-2.359-2.158-2.047-2.744-1.552-3.75-.613-3.596.127-2.958 1.014-3.237 1.846-3.099 1.678-2.7 1.047-2.836.386-2.734.028-1.226a3.433 3.433 0 0 1 6.859.306M10700.964-1130.105l-.128 1.164-.8 3.211-1.424 3.519-1.787 3.14-2.202 3.278-2.026 2.916-1.371 2.76.141 2.731 2.433 2.251 3.293 1.855 3.071 1.313 2.783-.276 2.34-2.399 2.24-4.278 1.512-4.089.656-2.95.498-3.568.243-3.924-.558-3.57-1.508-2.988-2.804-2.122-1.866-.894a3.627 3.627 0 0 1 2.74-6.715l1.223.523 2.663 1.472 2.653 2.35 1.96 2.705 1.39 3.303.54 3.693-.24 3.167-.433 3.774-.524 3.912-.555 3.482-.839 3.64-1.127 3.296-1.29 2.784-1.467 2.43-2.712 2.88-3.797 1.944-3.26-.027-2.824-.697-2.77-1.144-2.951-1.567-3.692-1.933-3.505-2.924-1.477-3.933.255-3.507.85-2.78 1.507-2.886 2.12-3.104 2.148-2.934 1.716-2.633 1.384-2.621.74-2.509.09-1.157a3.389 3.389 0 0 1 6.748.636M10790.357-1202.432l-.361 1.16-.689 2.924-.343 3.592-.018 3.415.018 3.359.053 3.369.046 3.175.021 3.392-.09 3.929-1.059 3.736-2.595 2.935-3.07 1.88-3.028.725-3.175.719-3.083.81-2.943.228-2.858-.7-2.539-2.214-1.947-3.076-1.332-3.128-.57-3.13-.062-2.957.133-3.072.73-3.27 1.296-2.932 1.444-2.568 1.836-2.691 2.396-2.838 2.64-2.833 2.536-2.59 2.967-2.772 1.765-1.62a3.802 3.802 0 0 1 5.306 5.448l-1.42 1.394-2.873 2.707-2.62 2.624-2.488 2.684-2.194 2.601-1.636 2.502-1.306 2.577-.639 2.758-.082 2.98.431 2.875 1.379 2.449 2.318.765 2.923-.735 3.09-.592 2.318-1.488.804-2.985.019-3.459.04-3.372.056-3.137.037-2.992.05-3.537.228-3.677.587-3.247.718-2.823.318-1.174a3.394 3.394 0 0 1 6.517 1.897M10738.406-1197.66l-.04-1.39-.48-3.06-1.038-3.255-1.15-3.04-1.347-3.048-1.596-3.081-1.287-3.117-.56-3.141-.16-3.025-.837-3.09-.916-3.045.226-2.845 1.388-2.603 2.185-2.328 2.358-1.938 2.863-1.518 3.533-.886 3.257-.243 2.874-.086 2.824-.487 3.263-.611 4.02.59 2.72 2.288.642 3.62.024 3.672-.035 3.067-.259 3.331-.472 3.264-.662 3.031-1.088 3.118-1.739 3.482-2.08 3.3-1.717 2.52-1.775 2.616-1.927 2.568-1.106 2.655-.233 1.507a3.85 3.85 0 0 1-7.427-2.03l.4-1.865 1.121-3.167 1.833-2.591 1.878-2.462 1.67-2.547 1.938-2.903 1.718-3.096 1.071-3.2.848-3.134.493-2.903.01-2.987.729-2.952-.775-1.068-3.468.599-3.41.325-3.505.228-3.232.962-2.422 1.762-.686 2.45.88 3.09.323 3.508.246 3.24 1.094 3.07 1.386 3.001 1.063 2.785 1.142 3.306 1.196 4.246.665 3.805.107 1.391a3.284 3.284 0 0 1-6.56.344M10757.604-1142.88l-.083 1.03-.926 3.42-2.132 4.28-2.594 3.48-2.162 2.745-1.435 2.636-.557 3.089.893 3.45 1.921 3.447 1.863 2.808 1.884 2.297 1.07 1.097a3.718 3.718 0 0 1-4.562 5.872l-1.245-1.21-2.062-2.375-1.679-2.5-1.72-2.693-1.684-2.915-1.341-3.5-.498-3.548.237-3.119.964-2.994 1.65-2.623 2.068-2.624 2.303-2.896 2.092-3.274 1.03-2.879.076-1.017a3.325 3.325 0 0 1 6.63.517m-7.601 34.607.738-1.047 1.62-2.815 1.511-3.498 1.053-3.698.834-3.924.86-3.493.934-3.015.703-3.17.312-3.089-1.078-2.408-1.724-1.909-.556-.898a3.79 3.79 0 0 1 6.439-4.002l.9 1.123 2.057 2.441 1.286 3.412-.081 3.564-.484 3.097-.82 3.182-1.088 3.111-.904 3.42-.796 4.184-1.172 4.581-1.627 4.255-1.84 3.403-.952 1.409a3.718 3.718 0 0 1-6.125-4.216M10653.515-1208.547l-1.138.753-2.474 1.447-3.467 1.769-3.424 1.994-2.296 2.184-1.426 2.704-.405 3.087.964 2.866 1.983 2.485 1.979 2.33 1.677 2.26 1.24 2.864 1.904 1.01 1.957-2.533 1.319-3.08 1.295-2.328.532-1.12a3.779 3.779 0 0 1 6.844 3.207l-.689 1.487-1.577 2.883-1.449 2.683-1.823 3.094-3.144 2.199-3.577.374-3.48-.16-3.058-1.152-1.573-2.628-1.006-2.883-1.903-2.592-2.237-2.641-1.81-2.664-1.168-3.441-.319-3.504.532-3.104 1.345-3.238 1.94-2.716 2.444-2.247 3.416-2.184 4.068-2.19 3.147-1.881 1.101-.802a3.292 3.292 0 0 1 3.756 5.408"></path><path fill="#1d1d1d" d="m10655.336-1191.701.92-.747 1.989-1.773 1.874-2.356 1.606-2.594-.592-1.925-3.175-1.687-3.379-1.894-3.732-2.06-2.134-1.194a3.649 3.649 0 0 1 3.996-6.106l1.36.863 2.744 1.647 2.916 1.614 3.542 1.871 3.998 2.353 2.507 2.81.133 3.034-1.127 2.746-1.631 2.463-1.913 2.709-2.348 2.697-2.213 2.022-.89.781a3.45 3.45 0 0 1-4.451-5.274M10774.304-1279.726l-.869 1.199-2.004 2.835-1.988 3.036-1.27 2.805-.157 2.83 1.108 2.59 2.314.649 2.457-2.229 1.802-3.567 1.412-3.26-.766-2.206-2.259-1.37-.892-.57a3.844 3.844 0 0 1 4.106-6.5l1.819 1.141 2.876 2.1 2.08 2.372 1.037 3.114-.564 3.272-1.068 2.896-1.223 2.978-1.55 3.015-1.816 2.732-2.297 2.302-2.7 1.805-2.913.943-3.068-.673-2.614-1.824-1.862-2.311-1.5-2.47-1.047-3.119-.297-3.297.498-2.993 1.29-2.804 1.666-2.396 1.911-2.745 1.872-2.837.778-1.26a3.43 3.43 0 0 1 5.698 3.817M10784.966-1247.493l-.33.98-.926 2.41-1.175 2.816-1.151 2.8-1.302 2.904-1.267 2.915-.599 2.924.908 2.645 2.105 2.08 2.626.665 1.779-1.685.478-2.921.27-3.15-.731-3.095-1.612-2.973-1.71-2.728-1.808-3.518-.899-2.314a3.877 3.877 0 0 1 7.636-1.352l-.128.246.805 1.46 1.748 2.523 1.514 2.603 1.453 2.48 1.152 3.152.33 3.536-.243 3.253-.482 3.676-1.226 3.553-2.215 2.662-3.18 1.598-3.533.474-3.142-.321-2.682-1.144-2.407-2.062-2.138-2.521-1.48-2.591-.652-2.733.083-2.979.695-2.985 1.145-2.722 1.476-3.029 1.524-3.215 1.377-2.973 1.014-2.5.308-.986a3.465 3.465 0 0 1 6.592 2.141M10710.834-1254.373l-.218.85-1.159 2.621-1.914 3.05-1.672 2.552-1.284 2.71-.13 3.109 1.568 3.22 2.02 3.058 1.645 2.94.738 1.432a3.765 3.765 0 0 1-6.658 3.517l-.75-1.524-1.54-2.792-1.675-2.484-1.683-2.917-1.014-3.195-.125-3.144.659-3.094 1.258-2.924 1.852-3.042 2.04-2.765 1.093-2.044.211-.841a3.475 3.475 0 0 1 6.738 1.707m-6.426 24.668 1.003-1.018 1.873-2.17 1.786-2.406 1.996-2.737 1.977-2.921 1.757-2.579 1.513-2.506.677-2.859-1.496-2.157-2.73-1.792-1.86-2.708-.904-2.78-.251-1.197a3.879 3.879 0 0 1 7.572-1.683l.72 1.638 2.115 2.884 2.417 2.257 1.549 2.925.434 3.446-.51 3.04-1.34 3.134-1.923 2.885-1.802 2.478-1.93 2.77-1.963 2.723-2.02 2.81-2.234 2.714-1.044 1.074a3.765 3.765 0 0 1-5.382-5.265M10665.369-1238.971l.26.962.852 2.227 1.461 2.684 1.96 2.724 2.28 2.12 2.386 1.892-.265 1.731-.974-.906 1.117-2.905 1.449-2.694 1.454-2.844.941-2.976.7-3.304.82-3.262.695-2.842.629-3.108.75-2.898.391-1.19a3.912 3.912 0 0 1 7.402 2.535l-.267.769-.596 2.365-.615 3.195-.758 2.92-.774 2.79-.616 2.958-.866 3.197-1.264 3.169-1.696 3.107-1.586 3.267-1.463 3.17-2.942 2.192-4.077-.772-3.323-2.512-2.563-2.189-2.126-2.182-1.546-2.354-1.48-2.78-1.396-2.968-.856-2.413-.283-.957a3.526 3.526 0 0 1 6.785-1.918M10736.718-1283.187l-.017 1.097.188 2.544.665 2.95.935 2.932 1.11 2.809 1.747 2.326 1.112.95a3.779 3.779 0 0 1-4.83 5.813l-1.085-.974-2-2.153-1.531-2.598-1.148-3.107-.883-3.085-.688-2.852-.421-2.957-.102-2.598-.018-1.097a3.483 3.483 0 0 1 6.966 0m.166 16.44.709-1.077 1.508-2.607 1.465-3.007 1.364-2.764 1.7-3.001 1.695-3.29 1.032-3.238.631-3.146.551-3.119.48-3.25.22-1.613a3.723 3.723 0 0 1 7.392.904l-.339 2.778-.677 4.701-.546 3.486-.809 3.176-1.338 3.24-1.587 3.007-1.595 2.77-1.433 2.844-1.509 3.05-1.708 2.95-.888 1.354a3.779 3.779 0 0 1-6.318-4.148M10625.07-1159.88l1.015-.068 2.425-.365 2.677-.917 2.663-1.173 3.49-.274 3.157 1.442 2.159 2.522 1.932 2.635 1.308 2.806.755 3.015.415 3.255.161 3.423.038 3.224.02 3.071.02 3.049-.005 3.563-.015 2.014a3.86 3.86 0 0 1-7.72 0l-.017-1.793-.006-3.215.018-2.972.018-3.039.005-2.977-.1-3.143-.354-3.107-.915-2.805-1.375-2.6-2.02-.664-2.72 1.008-2.934.656-2.532.322-1.014.092a3.503 3.503 0 0 1-.55-6.985M10666.4-1095.493l.894.004 2.29-.177 2.78-.512 3.095-.441 3.824.39 3.66 1.608 2.642 2.369 2.179 2.872 1.662 3.106.727 2.883.303 2.856.37 2.596.21 1.132a3.849 3.849 0 0 1-7.552 1.482l-.252-1.27-.438-3.06-.472-3.321-1.167-2.752-2.075-2.374-2.8-1.123-3.23.265-3.242.356-2.514.12-.894.005a3.507 3.507 0 0 1 0-7.014M10711.074-1083.003l.322-1.096.727-2.508.931-3.28.915-3.27.776-2.779.731-2.856.698-3.213 1.081-3.405 1.99-3.239 2.976-2.226 3.495-.026 2.975 1.905 2.067 2.421 2.05 2.499 2.257 2.581 1.94 2.706 1.486 2.978 1.172 2.851 1.366 2.65 1.44 2.272.623.966a3.874 3.874 0 0 1-6.46 4.276l-.758-1.122-1.575-2.474-1.464-2.788-1.181-2.927-1.383-2.926-1.912-2.58-1.964-2.268-1.24-2.763-1.054-.17-1.078 2.95-.76 2.944-.806 2.844-.86 2.922-.996 3.243-.994 3.111-.743 2.513-.294 1.103a3.373 3.373 0 0 1-6.496-1.82M10796.338-1155.168l-1.235.934-2.863 2.082-3.21 2.08-2.918 1.888-2.64 2.058-1.483 2.929-.202 3.345.013 3.245.538 3.358.998 3.15.844 2.888 1.206 2.988 1.266 2.85.413 1.233a3.822 3.822 0 0 1-7.305 2.25l-.667-1.586-1.211-2.93-.873-2.702-.778-2.785-.981-3.208-.707-3.778-.188-3.51-.02-3.608.11-3.627 1.007-2.936 2.127-2.253 2.411-1.785 2.457-1.782 2.927-1.777 2.975-1.822 2.574-1.817 1.244-.926a3.473 3.473 0 0 1 4.17 5.554"></path><path fill="#1d1d1d" d="m10640.655-1124.715-.713 1.317-2.078 3.445-2.637 3.902-2.491 3.335-2.117 2.734-2.106 2.746-2.274 2.766-2.528 2.567-3.005 2.645-3.699 2.646-4.651 2.708-3.948 1.914-3.169 1.095-3.657.954-3.973.86-3.81.831-3.149.809-2.75.72-2.95.655-1.57.331a2.657 2.657 0 0 1-1.115-5.195l2.82-.582 4.245-.95 3.183-.848 3.69-1.076 3.677-1.163 4.401-1.65 4.792-2.319 4.025-2.526 3.237-2.395 2.621-2.302 2.311-2.308 2.125-2.39 2.123-2.519 2.218-2.685 2.402-3.087 2.376-3.412 1.799-3.117.641-1.351a3.198 3.198 0 0 1 5.704 2.895M10704.016-1074.48l-.004 1.051.018 2.609-.02 3.251-.165 3.412-.148 3.247-.027 3.131.006 3.048.049 3.29.05 3.796.37 3.824 1.11 3.577 1.696 3.075 1.933 2.842 2.057 3.1 1.067 1.63a3.634 3.634 0 0 1-6.004 4.094l-1.401-2.151-2.24-3.373-1.8-2.805-1.582-2.946-1.246-3.242-.858-3.777-.22-3.849.053-3.802.058-3.307.036-3.099.073-3.295.19-3.42.206-3.23.089-3.021.018-2.609-.004-1.051a3.32 3.32 0 0 1 6.64 0"></path><path fill="#1d1d1d" d="m10580.928-1089.946-.633 1.402-1.398 2.607-1.516 2.399-1.524 2.478-1.173 2.672-.647 2.976 1.314 1.968 3.042 1.507 2.299 3.037.987 3.659.392 3.352.78 2.902 2.114 1.906 3.512.774 3.716.188 3.888.18 3.458 1.166 2.29 2.727 1.419 3.173.89 3.065.867 3.175 1.252 3.117 1.817 2.684 2.64 1.243 3.17.124 2.973.011 3.495.357 3.344 1.426 2.678 2.009 3.224 1.08 3.669.177 3.74-.123 3.818-.48 3.368-.387 2.998.805 2.565 2.404 1.998 3.033 2.061 2.847 2.285 2.585 3.025 1.248 3.452.008 3.102-.011 3.065-.178 3.536-.05 3.726.468 3.377.162 3.081-.97 3.22-1.576 3.237-.573 2.909 1.006 2.755 1.684 2.739.631 2.824-1.455 2.471-2.524 1.352-2.955.646-3.467.337-1.85a3.939 3.939 0 0 1 7.736 1.485l-.182 1.009-.41 2.404-.502 2.788-.799 2.856-1.352 2.62-2.278 2.42-2.525 2.201-2.678 1.48-3.008.595-3.306.018-3.395-.775-2.332-1.943-2.089-.512-2.937 1.53-3.778 1.252-3.532.39-3.27-.5-3.336-.402-3.1.117-3.22.04-3.154-.018-3.218-.102-3.345-.723-3.037-1.958-2.518-2.608-2.502-3.04-1.752-3.222-1.939-1.278-3.532.513-4.276.502-4.021.19-3.479-.174-3.184-.587-2.917-1.599-2.908-1.937-3.045-.737-3.4-.022-3.344-.238-3.242-1.033-2.809-1.947-2.083-2.582-1.809-3.26-1.32-3.437-.932-3.345-.748-3.294-1.82-1.587-3.484-.03-3.806-.221-3.229-.488-2.8-1.013-2.774-2.038-2.13-3.024-1.087-3.19-.497-2.981-.128-2.958-1.33-1.818-2.753-1.14-2.374-2.14-1.158-3.539.194-3.825.764-3.137 1.092-2.86 1.646-2.838 2.046-3.043 1.619-2.77.558-1.188a3.43 3.43 0 0 1 6.232 2.868"></path></symbol><symbol id="icon-shroom-2" viewBox="11099.42 -1664.4 252.623 319.614"><path fill="#1d1d1d" d="m11163.7-1554.198-1.261.791-3.05 2.622-2.86 3.109-2.073 2.547-2.146 3.189-1.688 3.642-.701 3.196-.17 3.283.243 3.604.883 3.092 1.729 2.217 2.281 1.789 2.749 1.169 2.957-.38 3.157-1.707 3.332-2.253 2.637-2.227 2.03-2.351 1.74-2.778 2.025-3.34 1.243-1.909a3.463 3.463 0 0 1 5.857 3.698l-1.049 1.72-1.94 3.388-1.81 2.95-2.106 2.448-2.737 2.56-3.595 2.89-4.02 2.64-4.185 1.91-3.888.747-3.175-.698-2.494-1.68-2.236-2.052-2.351-2.18-1.924-2.767-1.358-3.56-.584-4.195.152-3.997.564-3.464.944-3.213 1.594-3.249 1.86-2.987 1.83-2.546 2.08-2.76 2.227-2.77 2.36-2.411 2.456-1.891 1.243-.827a2.972 2.972 0 0 1 3.227 4.99"></path><path fill="#1d1d1d" d="m11164.103-1560.54 1.328.807 2.625 1.798 2.432 1.978 2.181 2.006 1.986 2.053 2.555 2.996 2.86 3.676 2.357 3.516 2.282 3.923 2.17 3.774 2.059 3.13 2.15 3.396 2.045 4.41 1.74 4.516 1.545 4.358 1.111 3.85.64 3.22.553 3.383.484 3.279.414 3.093.413 2.876.55 4.068.595 5.361.38 4.16.225 3.105.166 3.398.047 3.73.017 3.951.108 3.937.142 3.783.115 3.515.1 3.21.148 4.038.193 4.363.164 3.537.125 3.44.119 3.882.204 4.342.218 3.805.15 3.003.119 2.913.084 2.995.063 3.184.051 3.082.062 2.914.044 3.279.026 3.318.051 3.082-.257 3.066-.557 3.011-.56 2.857-1.219 2.803-2.373 2.592-2.933 1.443-3.063.296-3.18-.217-3.04-.755-2.591-1.31-2.233-1.907-1.653-2.536-.754-3.055-.175-3.056-.16-3.129-.17-3.47-.01-3.386.012-3.215.02-3.023.015-2.979.02-3.181.027-3.037.033-2.801.03-2.867.04-3.125.101-3.47.211-3.244.167-3.04.166-3.326.209-3.757.212-3.43.188-3.294.142-3.386.216-3.01.175-3.194.066-3.196-.003-3.474-.021-3.871-.012-3.604-.011-3.543-.028-3.508-.175-3.075-.415-3.194-.498-3.594-.652-3.745-.66-3.302-.524-3.036-.494-3.11-.443-2.885-.547-2.937-.66-3.204-.549-3.126-.533-2.907-.669-3.07-.84-3.035-.821-2.581-.319-1.142a3.89 3.89 0 0 1 7.43-2.311l.683 2.34 1.068 3.686.76 3.045.678 3.523.642 3.69.607 3.515.503 3.356.42 3.215.416 2.905.603 3.351.808 3.995.688 3.98.475 3.422.33 3.03.08 3.2-.028 3.51-.011 3.542-.013 3.606-.03 3.889-.03 3.523-.023 3.351-.124 3.482-.184 3.557-.12 3.296-.211 3.333-.218 3.414-.192 3.045-.202 3.348-.182 3.219-.15 2.99-.004 3.243.045 3.79.041 3.604.035 3.25.023 3.338.017 3.045.02 3.045.015 3.047.01 2.896.07 2.964.19 3.164.162 3.016 1.002 2.451 2.48 1.312 2.939.08 1.551-1.61.533-2.851.55-2.834.163-2.899.033-3.175.029-3.108.057-2.92.06-3.242.057-3.226.075-3.004.098-3.366.058-3.35-.113-3.742-.143-4.478.022-4.012.12-3.435.152-3.526.15-4.337.075-3.997-.012-3.155-.091-3.418-.237-3.754-.329-4.018-.275-3.923-.237-3.562-.292-3.3-.295-3.055-.391-4.167-.52-5.2-.493-3.926-.434-2.891-.456-2.948-.597-3.115-1.063-4.46-1.466-5.049-1.508-4.205-1.615-4.141-1.727-3.729-1.928-3.156-2.149-3.457-2.196-3.9-2.095-3.716-2.022-3.267-2.485-3.385-3.172-3.621-3.73-3.409-3.374-2.36-1.362-.743a3.066 3.066 0 0 1 3.062-5.312M11212.669-1576.686l-.005 1.128.191 2.875.631 3.514 1.046 3.43 1.31 3.496 1.323 3.422 1.388 3.17 1.403 2.874 1.757 2.366 3.769 1.374 4.505.45 3.856.288 3.94.235 3.583.03 4.154-.741 4.5-1.708 3.499-2.091 2.725-2.178 1.93-3.167.963-3.904.314-3.68-1.007-3.232-2.69-2.434-3.406-1.699-3.72-1.182-4.372-1.003-4.907-1.014-4.576-1.04-3.847-.99-3.263-.847-3.432-.54-3.563-.344-3.496-.542-3.405-.36-2.005 1.501-.773 3.159-.524 3.579-.286 3.556-.124 3.52-.035 3.788-.008 3.575.024 3.135.279 2.951.652 3.108.876 3.542.844 3.648.604 3.12.68 2.905.906 3.135.933 3.532.893 3.726.7 3.566.603 3.467.64 3.383.5 3.803.264 4.735.05 5.26-.04 5.231.069 5.277.09 4.304-.024 3.298-.073 3.496-.112 3.74-.142 3.997-.115 4.007-.068 3.887-.062 3.934-.074 4.083-.077 4.191-.095 4.375-.086 4.455-.008 4.152.069 3.683.102 3.301.175 4.146.124 4.78-.053 3.907-.1 3.666-.132 3.473-.07 2.967-.06 3.407-.097 3.57.02 3.266.068 3.167.075 2.945 1.528 1.502 2.083-1.758.952-3.764.576-3.528.293-3.884.162-4.668.118-4.501.037-3.79.028-3.779.108-4.845.129-4.274.067-4.014-.022-4.035-.092-3.458-.073-3.473-.025-3.4-.012-3.601-.017-3.451-.014-3.437-.019-3.242-.045-3.181-.065-3.305-.038-3.033-.134-3.191-.227-3.33-.23-3.245-.21-3.457-.097-3.261-.05-3.242-.054-3.357-.05-3.22-.038-3.341-.005-3.176.162-3.363.35-3.833.412-3.381.308-2.943.232-3.086.241-3.026.26-3.08.164-3.12.006-3.03.014-3.145.276-3.116.464-3.126.541-4.017.333-2.428a3.742 3.742 0 0 1 7.413 1.035l-.171 1.308-.388 2.973-.531 3.457-.452 3.231-.15 2.875-.044 3.022-.155 3.518-.315 3.805-.302 3.35-.213 3.262-.298 3.274-.387 3.226-.276 3.32-.075 3.038-.004 3.176-.038 3.34-.047 3.212-.036 3.32.006 3.136.089 2.968.253 3.406.336 3.836.212 3.494.055 2.932-.038 3.033-.066 3.305-.045 3.181-.019 3.242-.014 3.437-.016 3.45-.012 3.602-.025 3.4-.074 3.473-.092 3.458-.021 4.035.067 4.014.129 4.275.106 4.845.027 3.78.033 3.796.101 4.527.08 4.242-.075 3.292-.342 3.203-.666 3.707-.834 3.297-1.146 3.123-1.785 2.962-3.01 1.543-3.324-.09-2.729-1.167-2.735-1.647-2.32-2.042-1.106-2.79-.13-3.127.079-2.963.09-3.012.193-3.367.262-3.569.271-3.368.364-3.119.409-2.904.425-3.064.424-3.625.318-4.597.175-4.146.102-3.3.069-3.684-.01-4.152-.086-4.455-.094-4.374-.078-4.19-.077-4.083-.065-3.932-.074-3.884-.126-4-.162-3.982-.15-3.71-.141-3.436-.152-3.173-.18-2.93-.227-4.168-.187-5.254-.198-5.049-.385-4.754-.43-3.695-.448-2.89-.5-2.81-.469-2.881-.667-3.19-.927-3.49-.986-3.364-1.03-3.548-.769-3.457-.497-2.878-.713-3.223-.911-3.598-.86-3.848-.453-4.341-.056-3.893-.002-3.657.023-3.935.2-3.898.306-3.816.557-3.61 1.088-3.143 1.442-2.575 1.838-2.22 2.624-1.477 3.02-.416 2.939.389 2.865.63 3.126.561 3.41.494 3.33.695 3.287.975 3.633 1.027 4.366 1 4.95.939 4.847 1.071 4.53 1.502 3.543 1.598 2.434 1.606 2.118 1.95 1.7 2.405.944 3.656-.009 4.55-.82 4.765-1.675 4.472-2.298 3.027-2.73 1.995-3.637 2.11-3.465 1.733-2.852 1.026-3.205.783-3.481.436-3.76.211-3.974.19-3.951.205-4.717-.026-4.417-.722-3.13-1.917-2.354-2.605-1.712-3.126-1.413-3.192-1.124-2.91-1.278-3.437-1.384-3.82-1.176-4.076-.712-4.373-.218-3.367-.004-1.128a3.241 3.241 0 0 1 6.482 0M11173.75-1614.236l-.427 1.296-1.036 3.196-1.216 3.387-1.412 3.445-1.541 3.778-1.362 3.608-.894 3.546-.29 3.407.014 3.377 1.082 2.825 2.172 1.99 2.628 1.339 3.013.413 2.841-.534 2.766-1.711 2.603-2.357 2.376-2.782 1.973-3.167 1.296-3.258.805-3.439.296-3.414-.169-3.221-.54-2.958-.863-2.896-2.226-2.1-3.491-1.45-3.227-1.37-3.653-.715-2.202-.151a3.879 3.879 0 0 1-.473-7.743l1.976-.065 3.577.32 3.045.956 2.974 1.256 2.77 1.323 2.778 1.426 2.833 1.934 1.856 2.44 1.073 3.104.936 3.39.523 3.519.033 3.365-.273 2.997-.493 3.23-.902 3.332-1.234 3.038-1.405 2.689-1.91 2.793-2.398 2.695-2.513 2.357-2.828 2.099-3.037 1.524-3.607.809-3.573.152-3.292-.7-3.308-1.488-2.54-1.874-2.212-2.235-1.859-2.706-.89-3.592-.062-3.889.203-3.205.542-3.23 1.081-3.716 1.412-3.79 1.411-3.42 1.455-3.19 1.396-3.446.988-3.146.37-1.312a3.273 3.273 0 0 1 6.26 1.915"></path><path fill="#1d1d1d" d="m11191.188-1612.508-.016 1.083-.005 2.521.048 2.839.334 2.9.41 2.925.258 3.292.2 3.305.265 3.4.268 3.518.278 3.228.464 3.399.54 3.597.52 3.577.428 3.368.402 3.431.307 3.467.166 3.199.172 3.366.122 3.313.166 3.377.351 3.338.557 3.242.718 3.241.727 2.839.838 3.476.822 3.862.68 3.513.674 3.587.593 3.538.567 3.444.512 3.44.312 3.23.312 3.24.277 3.152.08 3.372-.013 3.49-.005 3.406.001 3.635-.026 3.97-.053 3.8-.06 3.545-.056 3.634-.034 3.473-.029 3.477-.013 3.269.02 3.14.028 3.547.016 3.813.01 3.892-.004 3.492-.006 2.927-.002 2.833-.006 2.94-.009 3.027-.002 2.914-.004 2.965-.006 3.013.017 3.027.028 3.7.012 2.132a3.648 3.648 0 0 1-7.296 0l.012-2.132.028-3.7.017-3.027-.006-3.013-.004-2.965-.002-2.914-.009-3.028-.006-2.939-.002-2.833-.006-2.927-.003-3.492.01-3.892.015-3.813.027-3.547.02-3.14-.013-3.268-.028-3.478-.035-3.473-.054-3.634-.06-3.545-.054-3.8-.028-3.571v-6.394l-.027-3.282-.14-3.767-.276-3.414-.252-3.292-.244-3.177-.396-2.945-.415-2.926-.45-3.015-.585-3.246-.618-3.261-.633-3.06-.765-3.112-.83-3.36-.74-3.385-.662-3.38-.451-3.247-.271-3.319-.166-3.718-.172-3.764-.146-3.21-.134-2.831-.338-3.407-.486-3.72-.623-3.816-.622-3.892-.508-3.675-.364-3.646-.258-3.59-.24-3.817-.238-3.652-.184-3.168-.266-3.351-.175-3.255.048-2.85-.005-2.522-.016-1.083a3.487 3.487 0 0 1 6.974 0M11181.385-1575.947l-.014 1.103-.018 3.032.01 3.479.05 2.976.074 2.932.068 3.306.224 3.3.424 3.245.513 3.377.545 3.07.554 2.92.81 4.027.518 2.543a3.684 3.684 0 0 1-7.26 1.26l-.386-2.082-.628-3.576-.561-3.33-.67-3.668-.59-3.45-.474-3.724-.202-3.912.068-3.306.074-2.932.05-2.976.01-3.479-.018-3.032-.014-1.103a3.422 3.422 0 0 1 6.843 0M11230.934-1622.63l-.003 1.01.523 2.502 1.931 2.785 2.564 2.198 2.657 1.968 2.88 1.528 3.122.802 3.357.522 3.025.2 2.95-.024 1.968-1.815.462-3.284-1.097-2.886-2.587-2.46-2.729-2.118-2.471-2.045-2.723-2.172-2.855-1.92-2.852-.81-3.174-.059-2.293 1.237-1.27 2.966-1.103 3.262-1.016 3.525-.988 3.784-.69 3.246-.51 3.027-.605 3.455-.472 3.834-.22 3.558-.07 3.16-.166 3.745-.182 2.188a3.746 3.746 0 0 1-7.44-.88l.174-1.508.205-2.972.082-2.877.254-3.238.438-3.7.63-3.856.627-3.567.58-3.41.8-3.798.94-4.018 1.162-4.091 1.358-3.557 1.36-2.74 1.9-2.453 3.056-1.46 3.53-.22 3.522.116 3.508.68 3.075 1.445 3.11 2.07 3.068 2.28 2.538 2.045 2.56 1.98 2.691 2.134 2.41 2.855 1.306 3.269.173 3.254-.229 3.262-.913 3.171-2.067 3.05-2.893 2.069-3.517.676-3.493-.004-2.933-.143-2.837-.427-2.798-.648-3.007-.92-2.926-1.366-2.396-1.632-2.34-1.832-2.691-2.285-2.339-2.418-1.505-2.65-.728-3.06-.1-2.525-.003-1.01a3.368 3.368 0 0 1 6.735 0"></path><path fill="#1d1d1d" d="m11242.345-1608.61-.01.986.013 2.717-.171 3.4-.754 3.204-1.012 3.038-.983 3.018-1.043 2.954-.87 3.726-.357 2.287a3.806 3.806 0 0 1-7.506-1.261l.217-1.422.584-3.07 1.02-3.264 1.19-3.2 1.113-3.064 1.05-3.049.496-3.297.013-2.716-.01-.988a3.51 3.51 0 0 1 7.02 0M11259.747-1528.646l-.116 1.249-.365 2.66-.55 2.805-.636 2.764-.776 3.822-.649 4.267-.223 3.256.435 2.778 1.94 1.843 3.39 1.023 3.634 1.09 3.195 1.046 2.925.22 2.234-1.57 1.087-2.88.49-3.38.206-3.632-.11-4.341-.498-4.268-.822-3.45-1.378-3.882-2.4-2.489-3.166.214-2.872 1.407-2.252 2.204-1.817 2.807-1.576 3.162-1.573 3.462-1.407 3.475-1.337 3.427-1.103 3.106-.762 3.225-.509 3.86-.192 3.672-.185 4.21-.332 5.187-.308 4.72-.212 3.592-.09 2.963-.175 3.665-.484 4.876-.575 4.87-.412 3.825-.498 3.362-.871 3.698-1.029 3.79-.895 3.38-.812 3.454-.554 3.712-.215 3.28-.158 3.374-.066 3.598.028 3.179.028 2.943.032 3.04.065 3.2.164 3.14.141 3.27-.003 3.76-.084 4.431-.083 4.557-.011 3.708.045 3.03.077 3.005-1.702 1.31-1.51-1.927.487-3.54.366-3.883.46-3.62.72-3.47.842-3.868 1.04-3.75.988-3.242.85-2.984 1.027-3.229 1.093-3.411.784-3.483.471-3.912.216-3.626.051-3.26.04-3.59.023-3.54.012-3.465.007-3.393.023-3.11.16-3.168.178-3.115.053-3.601.032-4.084-.001-3.614-.01-3.558.32-3.476.655-3.26.677-3.153.64-2.918.918-3.374 1.206-3.705 1.27-3.258 1.16-2.518.486-.992a3.638 3.638 0 0 1 6.618 3.025l-.432 1.017-.98 2.353-1.053 2.789-1.082 3.453-.885 3.376-.734 3.11-.81 3.253-.624 3.115-.278 3.281-.036 3.335.012 3.5-.013 3.252-.083 2.988-.22 3.823-.172 3.672-.002 3.228.012 3.485.01 3.454.021 3.621.007 3.533-.054 3.356-.223 3.3-.39 3.09-.612 3.068-.945 3.531-1.142 3.943-1.115 3.817-1.06 3.485-.906 3.205-.617 2.985-.646 3.176-.482 3.376-.307 3.416-.488 3.773-.772 3.614-1.672 2.743-2.64 1.34-2.97-.197-2.408-1.807-.937-2.82.019-3 .077-3.363.026-3.671-.053-4.204-.11-4.567-.107-4.02-.119-3.165-.228-2.992-.15-3.11.025-3.131.034-3.144.044-3.37.084-3.354.145-2.992.208-3.427.282-3.383.592-3.045.816-3.156.874-3.267 1.019-3.605.941-3.486.66-2.997.479-3.213.456-4.348.392-4.92.24-4.053.168-3.274.26-3.246.234-4.029.122-5.055.06-4.714.053-3.742.231-3.257.458-3.058.698-3.05 1.04-3.301 1.275-3.478 1.352-3.544 1.497-3.778 1.563-3.595 1.618-3.062 2.039-2.834 2.614-2.513 2.97-1.908 2.983-1.248 3.378-.427 3.603.336 3.108 1.707 2.214 3.13 1.348 3.162 1.264 3.227 1.393 3.838 1.102 3.937.46 4.345.025 3.929-.206 3.066-.444 2.97-.831 3.107-1.764 3.347-2.511 2.699-2.959 1.623-3.117.386-3.127-.712-3.012-1.07-2.844-.986-3.081-.947-2.983-1.021-2.84-1.48-2.484-2.655-1.178-3.35-.02-3.068.318-2.99.597-3.92.943-5.018.992-5.116.547-3.718.103-1.25a3.126 3.126 0 0 1 6.228.546"></path><path fill="#1d1d1d" d="m11295.615-1481.291-.428.973-1.139 2.498-1.423 3.25-1.46 3.758-1.177 3.4-.757 2.876-.376 3.134.426 3.024 2 2.037 3.278.878 3.698.493 3.44.453 2.928.303.864-1.868-.535-3.392.036-2.822-.037-2.924-.898-2.717-2.43-2.615-2.805-2.496-2.648-1.546-2.868-.68-2.613-1.005-1.818.66-1.073 2.992-.588 2.936-.547 2.81-.825 3.038-.81 3.31-.77 3.605-.785 3.645-.883 3.604-1.236 3.926-1.43 4.109-1.12 3.403-.913 2.888-1.263 3.604-1.349 3.516-1.25 2.96-1.279 2.902-1.454 2.815-1.65 2.713-1.475 2.613-1.546 2.968-1.572 3.064-1.314 3.087-1.264 3.178-1.389 3.225-1.386 3.11-1.26 2.73-1.437 2.537-1.496 2.518-1.276 2.698-1.257 2.628.256.193 1.749-2.258 1.642-2.472 1.766-2.552 1.93-2.939 1.814-2.98 1.58-2.672 1.53-2.614 1.509-2.655 1.353-3.066 1.158-3.032 1.074-2.767 1.129-2.748 1.333-3.172 1.378-3.265 1.304-2.987 1.193-2.895.988-2.865.798-3.071.627-3.18.638-3.105.93-3.085 1.416-2.977 1.778-2.566 2.555-3.284 1.597-2.08a3.843 3.843 0 0 1 5.956 4.86l-.856 1.085-1.809 2.33-1.88 2.407-1.545 2.706-.922 3.022-.643 3.242-.637 3.147-.73 2.798-1.053 3.091-1.351 3.427-1.365 3.411-1.417 3.508-1.454 3.39-1.185 2.953-.998 2.822-1.187 3.011-1.39 2.908-1.637 2.86-1.77 3.052-1.708 2.867-1.653 2.695-1.867 2.85-1.863 2.705-1.713 2.58-1.885 2.727-2.003 2.417-3.213 1.424-3.548-.106-2.831-1.214-2.323-1.946-1.085-2.686.13-2.89 1.029-2.715 1.273-2.653 1.267-2.545 1.545-2.717 1.686-2.942 1.549-2.925 1.412-3.088 1.256-2.993 1.256-3.292 1.402-3.336 1.48-2.896 1.48-2.773 1.65-2.915 1.785-2.837 1.529-2.658 1.327-2.771 1.175-2.675 1.096-2.872 1.24-3.374 1.124-3.203 1.076-3.492 1.236-4.089.981-3.569.68-3.277.684-3.674.725-3.721.662-3.13.772-2.98.661-3.199.67-3.375 1.003-3.307 1.225-2.866 2-2.553 3.516-1.427 3.58.345 2.638 1.243 2.96 1.17 3.34 1.253 2.829 1.823 2.285 2.062 2.193 2.068 2.179 2.606 1.714 3.22.688 3.566.021 3.374-.028 2.928-.086 3.505-.527 3.642-1.393 2.906-3.206 1.968-3.727.509-2.903-.383-3.264-.434-3.493-.4-3.502-.713-3.082-1.207-2.68-1.931-2.207-3.116-.756-3.401.11-3.14.448-3.39.79-3.258 1.01-3.041 1.085-2.906 1.357-3.204 1.547-3.286 1.109-2.383.416-.979a3.351 3.351 0 0 1 6.152 2.66"></path><path fill="#1d1d1d" d="m11290.63-1567.776-.052 1.532.201 3.632.752 3.482 1.332 2.695 2.07 2.502 2.439 1.979 2.667 1.299 3.312.773 3.312.327 3.14.062 1.727-1.408.08-3.004.05-3.132.02-3.134-1.437-2.444-3.07-1.65-3.15-1.368-2.937-.898-2.79-.809-2.782-.451-2.815.017-1.742 1.911-.609 3.575-.333 3.539-.085 3.763-.023 3.67.002 3.2.011 2.86-.001 3.278-.008 3.529.158 3.164.366 3.064.226 3.134.033 3.154-.281 3.548-.7 3.428-.201 2.904.206 2.845v3.171l-.004 3.23-.083 3.22-.242 3.3-.189 3.018-.021 2.968.003 2.978-.135 3.008-.395 3.14-.979 3.189-1.297 2.953-1.282 2.67-1.412 2.717-1.63 2.719-1.784 2.49-1.77 2.526-2.071 3.132-1.96 3.087-1.664 2.888-1.68 2.922-1.634 2.676-1.674 2.76-1.564 2.796-1.514 3.068-1.535 3.407-1.218 3.1-.932 2.886-.445 1.489a3.64 3.64 0 0 1-6.904-2.312l.321-.899.786-2.387 1.075-3.026 1.38-3.47 1.576-3.694 1.494-3.078 1.555-2.762 1.887-3.05 1.777-3.014 1.505-2.807 1.44-2.629 1.716-2.804 1.994-3.02 1.86-2.665 1.742-2.543 1.523-2.582 1.326-2.504 1.269-2.619.946-2.836.422-2.898.093-3.049.017-3.305.062-3.108.208-3.022.149-3.348-.014-3.149-.001-2.99.006-3.202.039-3.132.306-2.899.549-2.893.289-3.133.017-3.023-.168-2.905-.3-2.897-.13-3.094-.007-3.53.001-3.697.013-3.409v-3.436l.003-3.872.05-3.451.34-3.539.597-3.486.758-3.082 1.668-3.166 2.782-1.925 2.986-.413 3.099.01 3.453.286 3.169.703 2.906.896 3.053 1.087 2.824 1.24 2.996 1.651 3.011 2.203 2.035 2.59.865 3.17.13 3.166.017 2.833-.082 3.232-.224 3.56-.732 3.296-1.978 2.402-3.038.894-3.397.009-3.188-.116-3.173-.365-3.59-.67-3.407-1.119-3.172-1.902-2.846-2.446-2.227-2.683-1.567-2.706-1.138-3.199-.914-4.596-.383-4.216-.051-1.532a3.284 3.284 0 0 1 6.568 0"></path><path fill="#1d1d1d" d="m11289.456-1486.806.003-1.104-.017-2.845-.037-3.468-.02-3.625-.002-3.91.045-4.52.06-4.877-.015-3.891.28-3.45.757-3.832.888-3.7.741-3.573.553-3.643.55-3.282.653-3.018.509-3.07.307-3.305.156-1.844a3.696 3.696 0 0 1 7.378.473l-.21 2.39-.405 3.855-.625 3.303-.752 3.45-.656 3.084-.64 2.893-.73 2.85-.83 2.987-.907 3.74-.53 3.696-.015 3.887.06 4.878.044 4.52-.001 3.909-.021 3.625-.037 3.468-.017 2.845.003 1.104a3.26 3.26 0 0 1-6.52 0"></path><path fill="#1d1d1d" d="m11303.008-1519.77.04 1.001.733 2.911 1.933 3.556 2.367 3.074 1.986 2.671 2.256 1.558 2.498-1.092 1.27-3.18-1.356-3.378-3.044-2.634-2.889-2.13-2.629-2.464-2.779-1.73-1.52-.364a3.764 3.764 0 0 1 .017-7.529l1.238.009 2.67.29 2.749 1.358 2.268 2.198 2.175 2.202 2.673 2.004 3.16 1.945 3.168 2.726 1.615 3.404.048 3.593-.388 3.69-.897 3.222-1.608 2.617-2.248 1.995-3.08.892-3.322-.018-2.982-.658-2.663-1.739-1.992-2.487-1.932-2.818-2.118-2.854-1.971-3.165-1.554-4.091-.631-3.27-.051-1.006a3.399 3.399 0 0 1 6.79-.309"></path><path fill="#e8e8e8" d="M11163.218-1388.354v-52.948q0-1.727-.04-3.05t-.103-2.42-.145-2.144-.183-1.992-.216-1.772-.232-1.514-.187-1.238-.166-1.152-.193-1.407-.207-1.769-.243-2.035-.262-2.266-.284-2.389-.296-2.29-.216-2.241-.117-2.314-.064-2.254-.034-2.223-.074-2.302-.15-2.243-.19-2.12-.266-2.162-.361-2.376-.374-2.469-.34-2.307-.35-2.038-.354-1.694-.307-1.318-.247-1.003-.189-.74-.168-.527-.179-.373-.168-.27-.178-.173-.206-.095-.242-.05-.348-.029-.493-.015-.599-.008-.658.023-.69.11-.704.224-.717.341-.72.468-.723.54-.724.544-.724.586-.74.654-.816.704-.92.746-1.053.805-1.272.932-1.41 1.094-1.315 1.146-1.102 1.01-.933.817-.84.682-.79.608-.763.625-.748.67-.737.696-.732.711-.69.72-.587.725-.49.726-.425.72-.33.667-.208.566-.118.51-.068.559-.038.632-.02.745-.01.943-.007 1.12-.003 1.147-.002 1.092.038 1.06.14.977.234.862.293.797.33.734.35.642.389.533.442.441.443.374.447.34.505.309.536.232.546.137.666.077.898.044 1.093.024 1.132.013 1.015.007.88.004.81.002.771.001.7.001.577-.038.476-.124.416-.16.397-.18.426-.229.462-.268.484-.333.516-.432.584-.536.649-.58.674-.53.64-.448.504-.327.312-.031.17.447.125.9.197 1.277.336 1.684.433 1.951.427 1.999.354 1.917.283 1.738.234 1.573.205 1.548.15 1.673.082 1.74.044 1.687.024 1.659.013 1.78.008 2.013.003 2.054.003 1.87 0 1.593.001 1.265 0 1.018 0 .887.001.816 0 .845 0 .927 0 .972 0 1.011 0 1.103 0 1.286 0 1.481 0 1.586 0 1.624 0 1.716 0 1.765 0 1.606 0 1.327 0 1.078 0 .917 0 .898 0 1.024-.005 1.161-.045 1.252-.112 1.37-.147 1.575-.17 1.741-.196 1.773-.226 1.815-.241 1.89-.213 1.86-.144 1.658-.078 1.36-.042 1.1-.023.928-.013.836-.007.786-.004.758-.001.743-.002.734 0 .73 0 .722 0 .67 0 .59 0 .52 0 .415 0 .312 0 .275 0 .298 0 .346.038.362.178.32.337.265.388.252.378.255.397.246.48.243.583.23.648.206.678.194.683.187.644.18.555.134.464.077.4.047.36.057.332.098.317.09.317.091.653.132 1.081.16.638-.927.05-2.645"></path><path fill="#1d1d1d" d="m11160.475-1386.724.017-1.63.031-3.272.062-3.51.131-3.992.15-4.248.06-3.939-.041-3.37-.056-3.196.029-3.684.126-4.525.138-5.205.101-5.326.059-4.778-.041-3.903-.311-4.084-.555-4.276-.615-3.34-.693-3.424-.657-4.033-.565-4.408-.527-4.716-.317-4.662-.154-4.576-.276-4.298-.54-4.332-.682-4.605-.707-3.893-1.948-1.157-2.68 1.393-2.229 1.844-2.48 1.889-2.397 1.977-2.368 2.04-2.624 2.335-2.016 2.468-.72 3.133.026 3.387.89 2.727 2.624 1.24 3.403-.014 2.799-.793 2.58-1.843 1.42-1.052a3.867 3.867 0 0 1 4.326 6.411l-1.658 1.311-3.057 2.141-2.764 1.152-2.887.312-3.166-.02-3.366-.205-3.342-1.14-2.692-2.28-1.678-2.903-.788-2.96-.178-3.083.09-3.573.558-3.279 1.41-2.813 2.126-2.599 2.455-2.245 2.488-2.071 2.693-2.31 2.678-2.19 2.45-1.92 2.449-1.95 2.928-1.806 3.179-1.006 3.03.219 2.662 1.92 1.372 2.95.63 3.189.682 4.11.721 4.761.564 4.658.252 4.543.121 4.536.242 4.329.472 4.541.488 4.441.36 3.953.299 3.517.214 3.67.017 4.548-.107 4.214-.04 3.903.058 4.778.102 5.326.137 5.205.127 4.525.028 3.684-.056 3.197-.041 3.369.06 3.939.15 4.248.132 3.992.061 3.51.032 3.272.016 1.63a2.743 2.743 0 0 1-5.486 0m-5.628-87.338.273 1.205.541 2.723.65 3.555.656 3.854.477 3.423.282 3.507.094 3.6-.006 3.728-.033 3.9.014 3.605.058 3.476.049 3.34.01 3.078-.014 3.106-.026 3.39-.003 3.58.032 3.268-.105 3.605-.311 3.901-.44 3.61-.476 3.67-.293 3.54-.052 3.276.04 2.996.055 2.892 1.557 1.212 2.96.08 2.14.38.705.07a3.84 3.84 0 0 1-1.126 7.595l-2.201-.416-3.626-.794-2.735-.882-2.494-1.328-1.891-2.946-.678-3.628.06-2.986.094-3.267.158-3.243.295-3.37.401-3.68.35-3.502.26-3.532.127-3.253.032-3.268-.003-3.58-.026-3.39-.014-3.106.01-3.078.05-3.339.055-3.473.008-3.598-.051-3.866-.069-3.616-.117-3.197-.291-3.07-.5-3.15-.766-3.62-.875-3.81-.598-2.62-.197-.771a3.867 3.867 0 0 1 7.524-1.786"></path></symbol><symbol id="icon-shroom-3" viewBox="11301.806 -1410.738 213.923 299.115"><path fill="#e8e8e8" d="M11410.305-1367.995q-.524.802-.95 1.405t-.785 1.095-.664.927-.566.837-.527.788-.546.83-.587.99-.666 1.146-.748 1.233-.794 1.273-.797 1.226-.746 1.136-.656 1.088-.553.993-.472.871-.446.804-.432.77-.388.75-.366.739-.384.792-.418.95-.497 1.126-.582 1.235-.57 1.219-.488 1.066-.396.904-.315.775-.334.681-.418.74-.472.902-.512.988-.556 1.014-.568 1.032-.577 1.061-.61 1.13-.588 1.197-.569 1.258-.585 1.238-.591 1.158-.673 1.242-.788 1.431-.867 1.549-.959 1.68-.978 1.718-.846 1.505-.666 1.2-.51.982-.429.865-.417.804-.45.77-.485.752-.465.74-.425.733-.403.729-.388.727-.382.726-.41.726-.468.726-.503.725-.52.727-.508.729-.463.729-.424.727-.399.726-.388.729-.393.728-.401.73-.428.73-.431.795-.362.903-.339.963-.339 1-.3 1.021-.267 1.103-.231 1.24-.206 1.354-.153 1.435-.083 1.43-.045 1.387-.025 1.41-.013 1.543-.008 1.642-.004 1.653-.002 1.662-.001 1.532 0 1.314-.001 1.185.007 1.04.06.898.143.775.223.659.318.62.407.612.512.604.606.61.66.6.69.534.659.38.592.22.58.119.576.065.53.035.466.019.44.01.459.006.443.003.44.002.514 0 .604-.02.657-.094.756-.228.88-.377.874-.465.804-.496.768-.553.82-.639.912-.703.894-.676.814-.566.762-.438.695-.328.595-.244.49-.158.444-.086.457-.049.49-.026.514-.015.517-.008.565-.004.635-.002.676.037.698.141.713.285.792.453.893.559.878.564.806.54.767.464.734.35.67.253.568.16.469.09.446.05.473.06.49.098.55.09.626.052.67.028.692.015.776.008.892.005.952.002 1.052-.067 1.122-.255 1.093-.47 1.126-.67 1.226-.862 1.223-.938 1.138-.844 1.084-.67.94-.498.699-.323.503-.182.377-.1.31-.054.318-.029.372-.016.417-.027.459-.072.512-.1.538-.078.53-.042.571-.023.594-.012.557-.007.586-.004.648-.002.634.004.578.052.552.158.546.291.541.398.497.42.453.43.466.472.513.478.56.488.568.512.585.524.633.525.627.447.576.34.556.316.55.337.541.324.527.279.49.238.403.21.356.162.358.106.327.063.33.036.417.022.514.014.542.01.528.005.521-.038.542-.182.666-.398.83-.575.852-.657.795-.646.76-.562.742-.456.732-.38.73-.353.68-.336.59-.29.54-.24.5-.218.46-.206.43-.174.399-.151.405-.124.406-.076.39-.042.412-.022.415-.013.427-.006.51-.004.604-.002.66.029.689.118.705.224.712.293.718.33.721.35.72.358.721.356.723.365.723.38.722.386.721.382.721.361.72.327.723.32.723.324.693.314.636.295.606.237.55.18.473.143.459.105.475.064.534.038.617.022.666.012.69-.009.66-.08.594-.22.614-.434.694-.71.763-.974.804-1.155.782-1.173.665-1.004.528-.817.411-.747.312-.735.298-.797.323-.907.325-.984.306-1.103.28-1.236.242-1.268.166-1.173.09-1.007.05-.922.026-.944.014-.992.008-1.08.004-1.129.003-1.033.001-.856 0-.666.001-.554-.032-.525-.129-.518-.24-.565-.303-.633-.326-.675-.34-.698-.344-.707-.376-.714-.438-.771-.461-.873-.445-.89-.422-.829-.398-.779-.381-.752-.376-.737-.378-.73-.406-.725-.447-.725-.434-.725-.414-.705-.426-.654-.437-.623-.466-.647-.53-.682-.563-.7-.525-.708-.482-.694-.477-.637-.471-.563-.444-.528-.446-.533-.489-.536-.485-.538-.483-.553-.556-.6-.636-.656-.676-.647-.658-.6-.595-.6-.554-.593-.536-.556-.526-.534-.522-.524-.518-.517-.5-.5-.495-.505-.514-.642-.538-.81-.55-.83-.55-.78-.58-.743-.557-.678-.456-.615-.394-.627-.36-.623-.34-.577-.31-.596-.266-.614-.268-.537-.27-.463-.23-.464-.217-.51-.264-.542-.312-.545-.323-.548-.305-.53-.264-.521-.249-.51-.279-.502-.311-.55-.324-.568-.29-.514-.246-.446-.258-.443-.26-.479-.266-.497-.35-.555-.4-.63-.398-.663-.392-.639-.384-.59-.38-.566-.378-.572-.395-.617-.417-.664-.49-.854-.521-1.027-.473-1.093-.485-1.194-.534-1.258-.506-1.225-.438-1.065-.4-.926-.35-.917-.301-.975-.308-1.007-.327-.988-.292-.909-.239-.809-.244-.709-.246-.637-.223-.601-.243-.574-.277-.554-.279-.515-.243-.483-.23-.482-.273-.493-.322-.52-.376-.574-.437-.585-.443-.521-.446-.487-.478-.497-.476-.485-.478-.48-.479-.512-.45-.539-.413-.505-.392-.445-.41-.405-.453-.407-.455-.454-.453-.465-.443-.457-.414-.47-.407-.44-.372-.369-.333-.308-.313-.279-.261-.3-.222-.289-.24-.232-.246-.206-.228-.183-.226-.18-.247-.192-.28-.186-.307-.18-.329-.137-.318-.077-.294-.046-.29-.027-.267-.017-.255-.01-.266-.005-.309-.003-.366-.001-.38-.001-.407 0-.493 0-.539 0-.528-.001-.522 0-.53 0-.535.027-.515.086-.503.126-.525.128-.584.138-.63.176-.607.182-.54.149-.458.102-.393.091-.369.141-.364.162-.379.138-.418.136-.435.156-.432.202-.427.253-.399.265-.344.29-.347.35-.435.395-.495.437-.526.497-.551.571-.507.591-.664.746-.946 1.007-.07 1.473-.08 1.727"></path><path fill="#1d1d1d" d="m11413.67-1366.942-.526.801-1.341 1.978-1.598 2.386-1.646 2.712-1.68 2.814-1.808 2.917-1.678 2.888-1.366 2.704-1.489 3.195-1.417 3.167-1.25 2.686-1.444 2.806-1.676 3.124-1.715 3.408-1.557 3.106-1.617 2.871-1.902 3.256-1.83 3.264-1.565 2.932-1.52 2.738-1.717 2.997-1.847 2.998-1.66 2.772-1.394 2.726-1.1 2.74-.744 3.115-.392 3.602-.125 3.41-.05 3.155-.03 3.174.006 3.159 1.04 2.842 2.464 1.274 2.94-.402 2.979-1.579 2.963-2.056 3.11-1.468 3.202-.593 3.158.15 2.859.889 2.585 1.535 2.906 1.23 3.384.388 3.462-.561 3.437-1.857 3.348-2.084 3.137-1.098 3.123-.476 3.159-.203 3.45.642 3.133 1.793 2.563 2.247 2.595 1.837 2.82.509 2.742-1.144 2.56-1.62 2.734-1.341 3.016-1.05 3.523-.39 3.586.553 3.195 1.287 3.008 1.539 2.807 1.381 2.805 1.035 2.904-.758 2.286-2.527 1.47-3.032.939-3.317.432-3.275.104-3.273.006-3.01-.772-2.77-1.63-3.003-1.637-3.138-1.576-2.885-1.8-2.757-1.841-2.536-1.843-2.297-2.094-2.326-2.332-2.406-2.242-2.227-1.992-2.162-1.78-2.334-1.855-2.648-1.773-2.864-1.41-2.69-1.409-2.598-1.416-2.527-1.568-2.687-1.81-2.908-1.777-3.024-1.606-3.495-1.389-3.418-1.148-3.16-.948-3.003-1.04-2.678-1.422-2.624-1.84-2.356-2.019-2.16-2.025-2.144-2.209-2.287-2.629-1.29-3.134.116-3.125.546-2.913 1.319-3.295 2.858-1.838 1.917a3.91 3.91 0 0 1-5.698-5.356l.831-.914 1.811-1.988 2.03-2.03 2.388-1.672 2.835-1.191 3.047-.888 3.045-.553 2.907-.131 2.922.152 3.118 1.073 2.632 1.952 2.041 2.117 2.063 2.17 2.11 2.228 2.174 2.524 1.855 2.742 1.32 2.706 1.158 3.091 1.18 3.51 1.336 3.475 1.402 3.244 1.455 2.825 1.616 2.588 1.663 2.705 1.577 2.737 1.431 2.601 1.408 2.71 1.443 2.798 1.64 2.54 1.999 2.608 2.16 2.53 2.27 2.264 2.328 2.4 2.174 2.42 2.026 2.523 1.83 2.446 1.767 2.605 1.773 3.07 1.648 3.175 1.47 2.826 1.371 2.735.945 3.244.233 3.162-.02 3.045-.15 3.343-.39 3.12-.785 3.193-1.171 3.305-1.572 2.957-1.85 2.789-2.172 2.513-2.692 1.617-3.013.432-2.954-.325-2.874-.933-3.043-1.362-2.95-1.455-2.845-1.43-2.963-.688-2.883.631-2.826 1.477-3.05 2.029-3.596 1.545-3.637.174-3.113-.953-2.778-1.54-2.568-1.894-2.69-2.105-3.017-.96-3.134.36-2.98 1.322-2.907 2.05-3.213 1.723-3.52.774-3.414.04-3.085-.277-2.857-.722-2.707-1.297-3.082-1.39-3.24-.19-2.742 1.399-2.819 2.006-2.825 1.533-3.113.65-3.266.042-3.13-.664-2.99-1.691-2.34-2.557-1.443-3.244-.412-3.483-.004-3.22-.02-3.194-.016-3.235.04-3.056.2-3.083.427-3.04.778-3.05 1.061-2.91 1.321-2.646 1.49-2.59 1.7-2.617 1.763-2.768 1.702-2.836 1.576-2.697 1.343-2.472 1.634-2.957 1.787-3.279 1.728-3.254 1.51-3.08 1.519-3.047 1.703-3.174 1.49-2.882 1.484-3.088 1.524-3.303 1.57-3.137 1.705-3.056 2.004-3.265 2.216-3.533 1.957-3.076 1.967-2.753 1.606-2.264.523-.804a3.393 3.393 0 0 1 5.68 3.712"></path><path fill="#1d1d1d" d="m11415.28-1272.423-.005.983.013 2.402-.09 2.952-.181 3.156-.153 3.243-.226 3.514-.284 3.327-.254 2.843-.334 2.993-.61 3.202-.757 3-.894 2.908-1.202 3.044-1.375 2.92-1.59 3.04-1.679 2.894-1.84 2.714-2.28 3.038-2.374 3.034-2.112 2.64-2.274 2.882-2.362 2.992-2.448 2.785-2.908 3.104-3.155 3.245-3.547 3.244-3.87 3.286-3.84 3.196-3.685 2.87-3.7 2.654-3.627 2.616-3.317 2.399-2.854 1.913-2.865 1.806-3.043 2.001-2.683 1.813-2.51 2.082-2.408 2.39-2.221 2.46-1.644 2.971-.485 3.127 1.398 2.26 2.623 1.634 2.697 1.52 3.158 1.333 3.221 1.195 3.038.792 2.992.512 3.08.383 3.342.21 3.155.142 3.099.124 3.363.251 3.533.43 3.277.28 2.89.08 2.853.007 2.971-.004 2.966-.61 2.907-1.538 2.744-1.715 2.51-1.625 2.523-1.704 2.366-1.754 2.158-1.803 2.336-1.914 2.302-2.132 1.86-2.412 1.497-2.58 1.34-2.624 1.36-2.571 1.297-2.571 1.103-2.661 1.227-2.933 1.338-3.257 1.195-3.14 1.04-2.947.935-3.158.77-3.552.55-3.422.438-3.087.341-2.91.167-2.8.006-2.878-.008-2.977-.004-3.072-.002-2.988.056-3.002.219-3.093.255-2.99.257-3.033.17-3.171.02-3.492.028-3.534.011-3.106-.002-2.99-.229-3.024-.453-3.075-.434-2.995-.216-2.909-.01-2.922-.002-2.992.203-2.961.886-2.904.944-2.415.261-.899a3.962 3.962 0 0 1 7.626 2.16l-.768 2.09-.963 3.634-.197 3.095-.002 3.231.192 3.16.431 2.894.45 3.12.208 3.205-.003 2.936.004 2.843.026 3.003.023 3.098-.015 3.036-.176 3.006-.299 3.006-.303 3.035-.163 2.95-.002 3.032-.002 3.143-.006 3.114-.01 3.046-.085 2.963-.204 2.878-.312 2.884-.508 3.223-.52 3.196-.663 3.236-.882 3.178-.89 2.824-1.01 2.861-1.21 3.03-1.317 3.095-1.147 2.86-1.152 2.765-1.335 2.633-1.43 2.744-1.42 2.811-1.416 2.5-1.807 2.568-2.099 2.346-2.162 1.93-2.37 1.931-2.485 2-2.42 1.794-2.562 1.692-2.647 1.744-2.514 1.555-2.75 1.572-2.97 1.408-3.078.645-3.045.072h-3.09l-3.056-.004-3.116-.178-3.192-.356-3.01-.37-3.089-.196-2.965-.097-2.855-.177-3.128-.19-3.114-.393-2.985-.53-2.954-.567-2.904-.85-2.988-1.095-2.85-1.153-2.83-1.41-2.722-1.771-2.36-1.973-2.118-2.198-1.442-3.251-.374-3.572.495-3.128 1.07-2.938 1.66-2.611 2.089-2.383 2.117-2.045 2.19-2.023 2.373-1.812 2.822-1.813 3.382-2.072 3.325-1.88 3.053-1.85 3.298-2.326 3.636-2.625 3.57-2.56 3.482-2.73 3.65-3.173 3.611-3.256 3.176-3.053 2.963-3.232 2.71-3.047 2.208-2.575 1.906-2.403 1.83-2.316 1.936-2.378 2.13-2.755 2.191-3.024 1.862-2.63 1.646-2.644 1.77-3.28 1.722-3.692 1.348-3.835.962-3.849.567-3.326.275-2.813.29-3.318.287-3.644.263-3.37.344-3.428.213-3.213.013-2.401-.005-.983a3.414 3.414 0 0 1 6.828 0"></path></symbol><symbol id="icon-shroom-4" viewBox="10954.04 -1320.391 273.09 335.175"><path fill="#e8e8e8" d="M11076.184-1174.884q.624.93 1.099 1.617t.844 1.226.68.997.534.871.405.804.343.77.313.753.27.74.224.732.202.732.19.731.18.73.137.73.075.729.04.68.023.61.012.572.006.55.004.58.002.643 0 .717.001.828 0 .886 0 .895 0 .936 0 .928 0 .925 0 .973 0 .998 0 1.013 0 1.021 0 1.039 0 1.067-.017 1.145-.083 1.248-.178 1.304-.253 1.297-.291 1.226-.323 1.191-.382 1.238-.453 1.367-.53 1.517-.597 1.534-.59 1.455-.587 1.4-.666 1.372-.695 1.35-.658 1.337-.694 1.337-.772 1.358-.889 1.469-1.115 1.747-1.278 2.045-1.273 2.068-1.263 1.91-1.3 1.838-1.367 1.878-1.382 1.925-1.335 1.945-1.294 1.957-1.21 1.962-1.154 1.898-1.153 1.78-1.093 1.698-.969 1.52-.837 1.293-.708 1.175-.584 1.041-.488.966-.45 1.035-.474 1.074-.496 1.082-.47 1.154-.425 1.234-.414 1.273-.383 1.226-.313 1.078-.263 1.008-.247 1.093-.288 1.201-.354 1.285-.329 1.305-.258 1.24-.221 1.155-.186 1.134-.167 1.192-.203 1.307-.268 1.439-.273 1.633-.197 1.898-.168 2.013-.201 2.09-.164 2.16-.09 2.023-.048 1.851-.027 1.714-.014 1.57-.008 1.518-.004 1.524.02 1.478.128 1.454.327 1.557.545 1.718.739 1.934.88 2.143.94 2.16 1.013 2.074 1.08 1.888 1.013 1.571.9 1.32.787 1.076.642.795.554.634.576.604.636.598.68.573.7.559.711.577.768.597.864.585.957.614 1.005.647 1.015.58 1.026.488 1.03.45 1.019.442 1.014.413 1.022.373.955.358.882.343.91.307 1.04.304 1.249.302 1.43.22 1.52.119 1.433.099 1.275.129 1.242.116 1.212.067 1.065.037.985.02.995.011.93.006.835.003.785-.037.792-.166.902-.323 1.075-.422 1.207-.491 1.229-.532 1.113-.502 1.023-.5 1.092-.606 1.198-.717 1.256-.777 1.22-.797 1.09-.851 1.068-1.02 1.172-1.158 1.18-1.186 1.072-1.227 1.013-1.359 1.069-1.566 1.165-1.812 1.258-2.144 1.358-2.489 1.395-2.576 1.29-2.395 1.096-2.2.88-2.092.762-2.046.817-2.118.857-2.235.774-2.133.656-1.894.543-1.763.453-1.743.434-1.803.452-1.938.447-2.108.387-2.253.333-2.333.307-2.378.274-2.399.256-2.31.249-2.16.25-1.998.25-1.783.235-1.66.215-1.658.197-1.634.146-1.554.08-1.462.042-1.48.024-1.536.065-1.563.143-1.625.184-1.602.208-1.5.207-1.419.19-1.376.141-1.285.078-1.175.042-1.27.023-1.627.067-1.977.144-2.04.13-1.807.071-1.428.039-1.107.02-.93.012-.906.006-.96.004-.919.002-.828 0-.781.001-.756 0-.737 0-.681 0-.626 0-.71 0-.838 0-.868 0-.97 0-1.209 0-1.407 0-1.47 0-1.437 0-1.374 0-1.331 0-1.397 0-1.585 0-1.756 0-1.842 0-1.823 0-1.692 0-1.527 0-1.405 0-1.284 0-1.084 0-.86 0-.718 0-.684 0-.703 0-.77 0-.874 0-.953 0-1.033-.04-1.07-.102-1.071-.136-1.063-.155-.973-.14-.86-.13-.826-.178-.876-.202-.982-.174-1.043-.16-.966-.145-.838-.094-.691-.052-.522-.066-.404-.117-.39-.106-.42-.06-.403-.033-.385-.059-.42-.107-.456-.093-.478-.089-.509-.121-.493-.1-.408-.055-.34-.06-.329-.102-.38-.138-.434-.164-.439-.174-.453-.19-.505-.222-.531-.221-.598-.22-.737-.235-.743-.25-.649-.296-.6-.316-.533-.265-.447-.213-.362-.205-.292-.198-.29-.194-.302-.193-.304-.184-.31-.265-.323-.385-.344-.41-.356-.413-.349-.443-.331-.447-.33-.445-.33-.43-.276-.398-.232-.4-.259-.406-.29-.398-.314-.424-.337-.468-.352-.498-.36-.518-.36-.532-.356-.58-.357-.595-.339-.559-.318-.563-.367-.567-.373-.5-.296-.404-.255-.336-.216-.308-.177-.303-.165-.3-.155-.301-.153-.335-.134-.394-.139-.408-.157-.389-.159-.405-.177-.45-.172-.492-.146-.548-.123-.569-.11-.515-.11-.442-.085-.393-.092-.369-.131-.351-.109-.333-.088-.315-.112-.308-.095-.296-.075-.265-.086-.268-.081-.291-.058-.28-.066-.254-.09-.266-.074-.305-.045-.362-.03-.468-.015-.558-.009-.568-.004-.57-.003-.574-.001-.512-.001-.47 0-.514 0-.584 0-.599 0-.565-.001-.59 0-.652.041-.687.143-.707.24-.774.292-.88.358-.84.397-.695.344-.602.29-.523.287-.492.336-.617.434-.739.51-.712.498-.64.442-.55.4-.45.367-.397.383-.365.44-.373.452-.383.43-.372.374-.373.338-.32.349-.249.346-.25.335-.252.316-.226.275-.2.232-.182.194-.14.19-.11.21-.113.22-.09.231-.1.25-.137.271-.151.299-.192.317-.205.355-.189.378-.185.329-.17.286-.165.294-.28.66-.437 1.112.672 3.595 1.535 3.92"></path><path fill="#1d1d1d" d="m11078.433-1177.744.61.94 1.455 2.146 1.733 2.705 1.42 2.8.984 2.892.608 2.982.2 2.955.059 3.29.02 3.133.009 2.915.003 3.086-.097 3.015-.395 2.95-.885 3.521-1.158 3.575-1.188 3.065-1.376 3.044-1.391 2.824-1.478 2.753-2.038 3.275-2.505 3.817-2.694 3.926-2.778 3.797-2.676 3.787-2.43 3.776-2.227 3.57-1.901 3.014-1.486 2.678-1.347 2.98-1.231 3.335-.924 3.175-.857 3.396-.795 3.576-.587 3.5-.55 3.431-.468 3.51-.386 4.02-.247 3.877-.06 3.34v3.064l.3 3.33.946 3.564 1.523 3.858 1.832 3.807 1.829 2.936 1.932 2.375 2.365 2.151 2.512 1.788 2.49 1.428 2.727 1.243 2.832 1.091 2.839.87 3.42.521 3.706.285 3.16.14 2.846-.237 3.162-.968 3.16-1.467 2.637-1.485 2.537-1.88 2.495-2.294 2.025-2.293 2.001-2.847 2.535-4.047 2.118-3.594 1.801-3.349 1.78-4.028 1.579-4.159 1.491-4.082 1.015-3.468.831-3.533.817-4.046.697-4.458.582-4.631.501-4.33.449-3.7.38-3.276.22-3.678.105-3.722.239-3.35.379-3.141.324-3.142.153-3.257.197-3.73.23-3.996.036-3.607-.05-3.294-.052-2.978-.029-3.103.004-3.111.013-3.504.016-3.619.038-3.427.035-3.534.007-3.097-.023-2.869-.045-2.918-.037-2.947-.25-3.207-.582-3.515-.58-3.206-.498-2.795-.564-2.802-.787-2.752-.964-2.741-1.294-2.652-2.112-2.142-2.525-1.795-2.717-1.832-2.743-1.711-2.575-1.317-2.772-.852-2.964-.754-2.945-.452-3.045-.018-3.06.456-2.97 1.347-2.675 1.7-2.175 1.929-1.824 2.275-1.479 2.392-1.08 2.222-.403.988a3.943 3.943 0 0 1-7.338-2.884l.762-1.746 1.436-3.056 1.545-2.457 2.065-2.48 2.48-2.412 2.696-2.078 2.875-1.76 2.937-1.355 3.032-.819 3.183-.227 3.13.013 3.161.356 3.3.79 3.188.926 2.847 1.056 2.616 1.404 2.552 1.57 2.503 1.675 2.458 1.757 2.283 1.71 2.227 2.523 1.782 2.883 1.24 2.994.98 3.118.666 3.098.56 3.276.508 2.958.568 3.307.52 3.746.177 3.347-.037 2.948-.045 2.918-.023 2.87.007 3.096.035 3.534.037 3.427.017 3.619.013 3.504.004 3.11-.029 3.106-.055 2.986-.065 2.938-.111 3.024-.202 3.417-.167 3.724-.173 3.985-.338 3.469-.419 2.818-.354 2.888-.186 3.05-.156 3.171-.337 3.25-.486 3.313-.523 3.617-.51 4.286-.543 4.745-.691 4.803-.861 4.336-.98 3.83-1.203 3.807-1.534 4.177-1.662 4.403-1.939 4.461-1.77 3.57-1.315 2.633-1.938 3.662-2.407 4.005-2.358 3.116-2.438 2.634-2.551 2.264-2.635 1.857-3.084 1.75-3.663 1.73-3.273 1.233-2.819.468-2.967-.005-3.444-.187-3.365-.246-3.207-.367-3.41-.814-3.168-1.124-3.134-1.312-3.282-1.731-3.01-2.01-2.527-2.022-2.14-2.137-1.808-2.31-1.933-2.91-2.203-3.918-2.057-4.405-1.592-4.27-.775-3.765-.123-3.239.036-3.123.067-3.503.178-4.145.28-4.327.523-4.42.678-4.172.6-3.226.77-3.175.967-3.514.946-3.049 1.217-3.065 1.612-3.417 1.633-2.934 1.779-2.768 2.094-3.216 2.359-3.76 2.606-4.076 2.668-3.878 2.485-3.696 2.409-3.94 2.063-3.497 1.479-2.666 1.303-2.544 1.211-2.634 1.094-2.78 1.108-3.263.921-3.46.414-3.215.069-3.147.005-3.024.014-3.3.028-3.537-.08-3.284-.534-3.152-1.111-2.944-1.52-2.607-1.482-2.167-.64-.92a3.462 3.462 0 0 1 5.75-3.86"></path><path fill="#1d1d1d" d="m10989.235-1177.594 1.099-.97 3.103-2.67 3.798-3.136 3.362-2.69 3.126-2.376 2.713-2.098 2.762-2.143 3.262-2.38 3.485-2.501 3.853-2.648 4.444-2.806 3.911-2.229 3.086-1.58 3.104-1.6 2.983-1.607 3.082-1.59 3.117-1.512 2.862-1.42 2.787-1.35 2.813-1.263 2.7-1.18 3.56-1.624 4.24-1.992 4.207-1.822 4.546-1.68 4.835-1.502 3.963-1.082 3.336-.703 3.821-.653 3.85-.706 3.827-.727 3.83-.68 3.76-.63 3.561-.591 3.296-.542 3.123-.41 4.153-.342 4.563-.296 3.884-.228 3.557-.191 3.098-.137 3.49.095 3.56.536 3.12.84 3.017.956 2.916.921 3.407.962 3.85 1.276 3.64 1.64 3.446 1.903 2.956 1.816 2.428 1.604 2.72 1.808 3.069 2.07 3.021 2.15 2.8 2.088 2.521 2.088 2.395 2.41 2.312 2.537 2.096 2.363 1.846 2.28 1.519 2.487 1.112 3.247.527 3.351.065 3.065-.056 3.169-.955 3.42-1.848 3.063-1.949 2.288-2.183 2.112-2.615 2.187-2.694 1.908-2.62 1.463-2.665 1.46-2.977 1.506-3.392 1.358-3.08.988-3.03.947-3.043.926-3 .872-3.384.986-3.352.948-3.104.795-3.26.776-3.125.776-2.902.55-2.978.51-3.016.66-1.58.364a3.811 3.811 0 0 1-1.832-7.399l2.175-.538 3.978-.779 3.34-.577 2.952-.676 2.903-.687 3.226-.766 3.355-.882 3.275-.987 3.467-1.054 3.48-1.107 3.183-1.034 3.118-1.063 3.232-1.382 2.986-1.567 2.745-1.524 2.695-1.819 2.411-2.07 2.213-2.312 1.551-2.995.437-3.24-.174-3.09-.922-2.905-1.728-2.59-1.919-2.404-2.18-2.548-2.3-2.382-2.45-2.13-2.703-2.074-2.487-1.813-2.584-1.8-2.676-1.798-2.858-1.839-3.17-1.938-2.974-1.664-2.94-1.298-2.882-.957-2.902-.853-3.663-1.207-4.07-1.295-3.407-.752-2.924-.258-3.09-.133-3.524-.167-3.815-.147-4.392-.032-3.889.103-2.937.275-3.243.467-3.506.593-3.663.7-3.705.801-3.763.923-3.849 1.003-3.592.903-3.073.817-3.873 1.112-4.607 1.392-4.27 1.472-4.111 1.6-4.331 1.812-3.653 1.535-2.655 1.115-2.676 1.17-2.717 1.296-2.854 1.439-2.934 1.514-2.916 1.636-2.956 1.764-3.001 1.79-2.848 1.706-3.629 2.3-4.151 2.786-3.637 2.568-3.522 2.562-3.203 2.316-2.76 2.037-2.833 2.05-3.122 2.249-3.303 2.542-3.577 2.945-2.928 2.64-1.054 1.018a3.17 3.17 0 0 1-4.302-4.657"></path><path fill="#1d1d1d" d="m11078.74-1149.8-1.063-.01-2.646.003-3.562.04-3.735.054-3.173.052-2.82.046-3.046.034-3.604.015-3.514-.04-3.239-.208-3.26-.399-3.305-.644-3.124-.816-2.922-.781-3.093-.799-2.967-.842-3.038-.972-3.424-1.222-3.085-1.335-2.774-1.386-2.82-1.298-2.78-1.204-3.04-1.065-2.911-.961-2.979-1.12-3.096-1.162-2.853-1.265-2.798-1.525-2.715-1.72-2.627-1.977-2.186-2.33-1.471-2.575-1.023-2.797-.951-3.16-.726-3.139-.264-3.135-.041-3.159-.002-3.107.004-3.261.06-3.277.441-3.424 1.018-3.329 1.294-3.24 1.229-3.027 1.17-2.776 1.587-3.364 1.588-3.666 1.235-3.005 1.409-2.47 1.656-2.364 1.889-2.514 2.419-2.879 2.802-2.686 2.68-2.382 2.46-2.517 2.317-2.24 2.645-2.017 3.031-1.99 3.022-1.789 2.972-1.717 2.708-1.56 2.86-1.521 3.042-1.81 2.593-1.845 2.72-1.922 2.765-1.767 2.555-1.51 2.641-1.736 2.768-1.863 2.74-2.073 2.869-1.704 2.898-1.295 3.117-1.57 3.315-1.605 2.938-1.345 2.778-1.167 3.002-.936 3.055-.69 2.747-.86 2.829-1.007 3.133-.755 3.333-.565 3.293-.643 3.22-.759 3.227-.829 3.045-.649 2.839-.52 2.82-.757 2.94-.586 3.014-.202 2.936-.227 2.835-.258 2.843-.126 2.844-.012 3.199.052 3.304.42 2.843.874 2.75.863 2.954.975 2.87 1.135 2.753.983 2.936 1.207 2.722 1.44 2.46 1.52 2.56 1.787 2.625 1.795 2.66 1.557 2.588 1.488 2.524 1.599 2.642 1.77 2.518 1.85 2.489 2.167 2.476 2.326 2.296 2.108 2.273 2.267 2.09 2.333 2.016 2.498 1.924 2.651 2.051 2.817 1.824 2.813 1.248 2.663 1.151 2.715 1.227 2.662 1.52 3.04 1.492 2.917 1.394 2.754 1.254 2.935 1.088 2.732 1.073 2.797.74 3.044.266 3.312.011 3.485-.008 3.166-.02 3.018-.018 1.58a3.888 3.888 0 0 1-7.776 0l-.02-2.266-.023-3.822-.02-3.23-.137-3.218-.618-2.878-1.098-2.747-1.174-2.827-1.29-2.892-1.594-3.025-1.592-3.179-1.33-2.908-1.161-2.59-1.217-2.795-1.566-2.628-1.787-2.379-1.793-2.469-2.062-2.553-2.28-2.517-2.253-2.199-2.231-2.049-2.283-2.112-2.368-1.96-2.47-1.816-2.564-1.703-2.718-1.567-2.663-1.522-2.723-1.822-2.832-1.963-2.692-1.666-2.726-1.373-2.729-1.048-2.856-1.098-2.865-1.077-3.03-.95-3.277-.966-3.296-.45-3.329-.003-3.159.096-3.392.288-3.87.2-3.5.528-3.258.871-3.438.68-3.066.674-2.964.745-3.259.737-3.052.585-2.848.516-2.875.74-2.879 1.07-3.124.95-3.163.763-3.078 1.025-2.888 1.319-2.953 1.362-2.87 1.348-2.719 1.32-2.918 1.548-2.75 1.748-2.64 1.783-2.772 1.79-2.753 1.611-2.741 1.697-2.883 1.91-2.764 1.903-2.998 1.786-3.236 1.724-3.065 1.764-2.94 1.793-3.176 2.033-3.024 2.065-2.29 1.923-2.314 2.438-2.474 2.398-2.338 1.967-2.101 2.166-2.023 2.57-2.054 2.864-1.615 3.137-1.499 3.5-1.556 3.463-1.325 3.236-1.367 3.377-1.231 3.267-.924 2.962-.443 2.919.007 2.957.003 3.11.001 3.142.105 3.08.513 3.166.911 3.25 1.169 2.87 1.983 2.134 2.5 1.662 2.52 1.47 2.663 1.25 2.876 1.145 3.208 1.181 2.989 1.029 3.121 1.225 3.06 1.367 2.862 1.318 3.025 1.516 2.754 1.263 2.726 1.004 2.73.969 2.824.905 3.048.87 3.564.989 3.467.823 2.865.427 3.523.253 4.068.079 3.604.014 3.047.034 2.819.047 3.173.051 3.735.054 3.562.04 2.646.003 1.063-.01a3.412 3.412 0 0 1 0 6.824"></path><path fill="#1d1d1d" d="m11198.414-1205.001-.466 1.306-1.09 2.73-1.256 2.678-1.306 2.55-1.248 3.475-.577 2.179a3.762 3.762 0 0 1-7.423-1.234l.638-2.5 1.276-3.83 1.564-2.79 1.672-3.007 1.198-2.75.45-1.205a3.496 3.496 0 0 1 6.568 2.398"></path></symbol><symbol id="icon-shroom-5" viewBox="11422.674 -1163.34 264.494 337.685"><path fill="#1d1d1d" d="m11496.63-1003.236-.678.729-1.542 1.965-1.78 2.795-1.807 2.717-2.116 2.268-3.011 1.953-3.5 1.209-3.16.592-3.63-.267-2.98-1.96-1.237-3.055-2.107-1.932-3.57-.354-3.85-.135-3.507-.925-2.665-2.066-1.748-3.669-.713-5.242-.031-4.37.088-3.124.189-3.197.36-3.07.608-3.73.477-3.756.086-3.029-.818-2.709-1.463-2.483-.995-2.7-.42-2.946.073-3.494 1.093-3.393 2.014-2.615 2.125-2.138 2.517-2.184 2.694-2.184 2.23-2.015 1.528-2.345.98-2.74 1.037-3.26 1.262-3.663 1.237-3.409 1.11-3.003 1.23-3.131 1.69-3.065 1.987-2.412 2.434-1.96 3.488-1.397 3.83-.785 3.812-.467 3.746-.34 3.288-.221 3.024-.074 3.119-.039 3.712.226 3.552.422 2.903-.139 2.732-2.297 2.39-4.002 2.075-3.917 1.959-3.632 2.139-3.792 2.244-3.89 2.182-3.475 2.022-2.974 1.78-2.542 1.805-2.616 1.783-2.763 2.693-2.679 3.317-1.67 3.052-.475 3.14-.152 3.183-.015 3.11.026 4.096.073 4.81.619 3.825 1.66 3.002 2.518 2.52 3.084 1.929 2.92 1.661 2.466 2.482 2.634 3.14 2.333 3.426 1.39 3.833.507 3.274-.664 3.187-1.818 3.588-1.965 4.109-1.62 5.052-1.526 4.065-1.021 3.814-.553 4.68-.266 4.437.843 3.77 2.387 2.615 3.427 1.542 3.86.717 3.808.287 3.607.062 3.927-.225 4.447-.521 3.962-.495 3.212-.218 3.263 1.396 1.83 3.63.192 3.831.086 3.332.197 3.293.678 3.027 1.324 2.714 2.127 2.22 2.75 1.528 3.306.716 3.318.183 3.529-.09 3.715-.763 3.506-1.481 3.36-1.735 2.64-2.374 2.674-2.667 2.66-2.577 2.669-2.563 3.052-1.796 2.904-.702 3.069.592 3.137 1.607 2.55 2.03 2.14 2.149 2.16 2.318 2.302 2.366 2.567 1.887 2.806 1.174 3.265.471 3.625-.373 3.529-1.33 3.077-2.254 2.552-2.583 1.98-2.799 1.13-3.101.402-3.06.045-3.069.02-3.123.843-3.085 1.524-3.074 1.318-3.15 1.337-3.08 1.539-2.714 1.652-2.485 1.638-2.644 1.74-2.557 2.061-2.231 2.538-1.797 2.788-1.561 2.805-1.415 2.982-1.405 2.988-2.248 2.597-3.26 1.944-3.271 1.161-3.402.618-3.575.27-3.291-.017-3.172-.664-2.627-1.478-2.188-1.86-2.185-2.077-2.439-2.289-2.527-2.037-2.345-1.68-2.374-1.906-1.212-1.062a3.962 3.962 0 0 1 4.957-6.182l1.528 1.47 2.758 2.195 2.368 1.56 2.428 2.066 2.29 2.246 2.168 2.126 2.642 1.495 3.056.338 3.1-.24 2.98-.703 2.534-1.6 1.676-2.627 1.46-3.038 1.518-2.735 1.592-2.659 1.88-2.615 1.983-2.206 2.17-1.885 2.505-1.752 2.607-1.694 2.72-1.857 3.016-1.771 2.963-1.375 2.923-1.252 2.927-1.241 2.924-1.413 3.356-1.235 3.399-.445 3.057.015 3.005.001 2.734-.93 1.704-2.326.236-2.983-.961-2.805-1.953-2.342-2.364-2.354-2.265-2.303-2.248-2.386-2.064-2.606-1.52-2.59-.703-3.272.034-3.663.778-3.528 1.708-3.537 2.122-3 1.997-2.367 2.117-2.284 2.233-2.24 2.126-2.162 1.947-2.549 1.305-2.816.43-3.307-.128-3.856-.87-3.286-1.908-2.365-2.546-1.46-2.831-.451-3.17-.034-3.346-.049-3.729-.46-3.323-1.078-2.291-1.975-1.306-2.738-.17-3.058.33-3.118.495-2.922.524-3.08.306-3.695-.006-3.879-.106-3.27-.31-2.932-.921-3.18-2.117-2.932-3.141-1.281-3.743.19-4.434.878-4.782 1.5-3.999 1.528-2.89 1.378-2.558 1.464-3.137 1.672-3.852 1.156-3.651.121-3.593-.555-4.064-1.414-3.925-2.259-3.263-2.734-2.451-2.887-1.777-2.708-1.867-3.025-2.082-2.807-2.547-1.74-3.913-.723-3.84.013-2.993.15-4.08.358-4.104 1.017-2.354 2.096-2 2.848-2.076 2.73-1.894 2.633-1.963 2.892-2.07 3.543-2.112 3.875-1.916 3.56-1.898 3.74-2.128 4.299-2.811 4.38-2.888 2.848-3.104 1.037-3.88.115-3.983-.477-3.61-.334-3.037.002-3.481.111-3.935.341-3.622.499-3.192.548-2.889.985-2.506 2.117-1.675 2.985-1.152 2.981-1.097 3.14-1.128 3.445-1.01 3.445-.96 3.284-1.317 3.242-2.081 3.027-2.464 2.177-2.471 1.873-2.61 2.277-2.523 2.283-1.206 2.57.24 3.048 1.062 2.948 1.305 3.317.394 3.601-.312 3.498-.583 3.984-.582 4.78-.12 4.155.172 3.03.305 3.802 1.222 3.767 2.858 1.427 3.603-.02 3.435.147 3.132 1.14 2.209 2.263 1.151 2.85 2.064 1.3 3.125-1.14 2.401-2.088 1.758-2.54 1.956-2.725 1.814-2.14.67-.736a3.411 3.411 0 0 1 5.016 4.625"></path><path fill="#1d1d1d" d="m11588.886-1019.987-.9.75-2.285 2.033-2.585 2.544-2.192 2.361-2.154 2.497-2.12 2.713-2.016 2.831-2.111 3.144-1.994 3.25-1.767 3.05-1.562 2.774-1.604 3.024-1.728 3.362-1.57 3.287-1.489 3.394-1.572 3.65-1.4 3.58-1.089 3.351-.944 3.224-.844 2.942-.705 2.763-.576 3.03-.475 3.119-.35 3.006-.254 2.97-.28 2.877-.314 2.942-.466 3.273-.462 3.544-.339 3.225-.358 3.205-.274 3.177-.21 2.87-.11 3.139v3.469l-.01 3.26-.017 2.955-.019 3.108-.023 3.36-.023 3.473-.018 3.464-.034 3.924-.271 4.267-.743 4.02-1.039 3.62-1.177 3.368-1.404 3.35-1.602 3.062-1.851 2.889-2.272 2.89-2.409 2.554-2.313 2.158-2.73 2.024-3.35 1.712-3.343 1.026-3.484.595-3.76.322-3.44.084-3.452.04-3.308.052-2.905-.206-2.894-.717-2.771-.992-3.142-1.112-3.215-1.042-3.018-.95-3.043-1.052-3.05-1.262-2.972-1.37-2.869-1.24-2.803-1.223-2.44-1.441-2.292-2.022-2.02-2.307-1.784-2.461-1.986-2.849-1.87-2.709-1.405-2.81-1.296-3.345-1.281-3.048-1.195-2.72-.933-2.847-.47-2.855.018-3.134.42-3.24.867-2.958.93-2.787 1.114-2.776 1.964-2.535 2.405-2.109 2.554-2.12 2.583-1.986 2.58-1.845 3.016-1.865 3.103-.976 3.74-.102 2.306.011a3.967 3.967 0 0 1 .064 7.935l-2.04.034-3.466.232-3.01 1.667-2.796 2.278-2.29 1.784-2.343 1.717-1.7 2.422-1.014 3.04-.887 2.754-.299 2.915.384 2.999 1.142 2.834 1.439 3.19 1.237 3.155 1.262 2.792 1.782 2.89 1.865 2.612 1.818 2.443 2.235 2.276 2.795 1.679 3.15 1.339 3.081 1.428 2.833 1.276 2.745 1.053 2.778.973 2.885.998 3.004 1.032 3.13 1.097 3.294.774 3.145.181 2.98.007 3.04-.05 3.07-.157 3.056-.45 2.945-.696 2.716-1.131 2.718-1.993 2.454-2.353 2.34-2.838 2.004-2.951 1.332-2.542 1.112-2.722 1.02-3.075.849-3.146.49-3.021.117-3.09-.031-3.33-.017-3.48-.02-3.46-.026-3.47-.022-3.207-.016-2.984-.014-3.104v-3.149l.033-3.137.201-3.188.353-3.189.341-3.257.337-3.097.29-2.91.407-3.223.489-3.264.378-2.99.351-3.066.4-3.188.628-3.32.733-3.326.895-3.459 1.002-3.323.947-3.138 1.08-3.509 1.333-3.774 1.547-3.85 1.514-3.64 1.54-3.52 1.687-3.543 1.691-3.38 1.62-3.031 1.524-2.711 1.79-3.009 1.866-2.887 1.942-2.745 2.265-2.995 2.45-2.916 2.422-2.63 2.432-2.514 2.851-2.752 2.397-2.157.883-.77a3.32 3.32 0 0 1 4.306 5.056"></path><path fill="#1d1d1d" d="m11554.318-1060.453-.286 1.346-.758 3.377-.866 3.581-.84 2.909-.94 2.683-1.153 2.847-1.323 2.952-1.28 2.96-1.189 3.06-1.116 3.143-1.101 3.027-1.426 3.303-1.591 3.4-1.422 3.046-1.452 3.275-1.226 3.142-1.008 3.285-1.08 3.176-.883 2.756-.855 3.036-.907 3.046-.797 3.005-.735 3.12-.557 3.031-.461 2.875-.48 2.923-.454 2.894-.5 2.803-.716 2.9-.95 3.183-1.127 3.349-1.336 3.388-1.341 3.243-1.155 2.846-1.069 2.733-1.115 2.823-1.324 3.058-1.392 2.968-1.506 2.895-1.659 3.003-1.598 2.8-1.66 2.583-1.731 2.54-1.716 2.64-1.872 2.407-2.079 2.223-2.323 2.297-2.424 2.243-2.235 2.041-2.37 2.14-2.344 2.13-3.697 2.745-2.657 1.785a3.836 3.836 0 0 1-3.76-6.686l1.601-1.03 2.718-2.091 2.181-2.05 2.253-2.008 2.32-2.112 2.499-2.34 2.583-2.401 2.239-2.317 1.863-2.493 1.66-2.515 1.754-2.594 1.636-2.63 1.458-2.704 1.483-2.797 1.302-2.618 1.262-2.8 1.238-3.011 1.09-2.808 1.143-2.85 1.27-3.077 1.21-3.023 1.104-3.297 1.035-3.42.77-3.014.567-3.053.472-3.072.47-2.842.55-3.168.68-3.592.765-3.241.944-3.108 1.012-3.209.868-2.948 1.006-2.884.986-2.788.974-2.94 1.324-3.367 1.376-3.068 1.264-2.596 1.517-3.104 1.576-3.444 1.319-3.335 1.306-3.42 1.397-3.305 1.353-2.93 1.558-3.413 1.55-3.713 1.077-3.144.87-3.28.665-3.173.22-1.358a3.308 3.308 0 0 1 6.504 1.217"></path><path fill="#1d1d1d" d="m11511.6-962.52-.016-1.148-.054-2.599.079-2.917.125-3.405.004-3.57-.02-3.191-.029-3.175-.028-3.261-.032-3.348-.004-3.5-.173-3.436-.462-3.453-.348-3.32-.336-2.983-.946-3.174-1.558-2.838-2.061-2.474-2.217-2.487-2.665-3.46-2.462-3.486-2.198-2.862-2.399-2.69-2.055-2.006-2.337-1.834-1.313-.838a3.588 3.588 0 0 1 2.495-6.728l1.494.688 2.49 1.69 1.963 2.082 2.164 2.313 2.755 3.042 2.47 2.91 1.815 2.173 2.629 2.992 2.819 3.115 2.022 2.325 1.701 2.393 1.485 2.978 1.153 3.473.542 3.227.232 2.987.368 3.084.396 3.184.172 3.412-.004 3.5-.033 3.349-.028 3.261-.03 3.177-.023 3.204-.028 3.254-.21 3.394-.23 3.23-.054 2.598-.015 1.149a3.503 3.503 0 0 1-7.006 0"></path><path fill="#1d1d1d" d="m11495.348-1010.496 1.118.266 2.502.81 2.695 1.458 2.486 1.777 2.222 1.958 2.316 2.272 2.318 1.647 1.052.473a3.87 3.87 0 0 1-2.553 7.307l-1.209-.437-2.388-1.268-2.23-1.773-1.935-2.103-2.054-2.092-2.548-1.867-2.444-1.206-1.063-.272a3.58 3.58 0 0 1 1.715-6.95"></path></symbol><symbol id="icon-shroom-6" viewBox="10798.433 -1042.317 243.149 286.299"><path fill="#e8e8e8" d="M10870.967-994.169q-.645 1.209-1.192 2.178t-1.114 1.904-1.238 1.988-1.464 2.19-1.704 2.299-1.878 2.411-1.917 2.473-1.855 2.343-1.787 2.271-1.721 2.328-1.621 2.265-1.486 2.135-1.456 2.151-1.574 2.255-1.627 2.328-1.548 2.464-1.388 2.519-1.204 2.29-1.026 2.02-.89 1.942-.891 2.054-.978 2.307-.971 2.545-.885 2.577-.82 2.399-.732 2.203-.633 2.099-.577 2.042-.494 2.01-.396 1.991-.375 1.911-.396 1.799-.416 1.81-.443 1.868-.46 1.83-.414 1.778-.28 1.746-.152 1.607-.083 1.424-.045 1.283-.063 1.147-.114 1.073-.104 1.062-.056 1.117-.03 1.21-.017 1.35-.009 1.567-.005 1.755-.003 1.856-.001 1.907.017 1.87.083 1.686.193 1.411.308 1.178.375 1.077.407 1.016.465.984.54 1.076.548 1.125.482 1.014.399.843.3.644.246.445.317.339.45.327.52.32.516.276.519.242.519.225.517.213.489.205.48.203.494.167.472.103.468.056.463.03.46.019.537.012.622.007.667-.008.69-.068.707-.174.816-.324 1.116-.537 1.464-.698 1.627-.727 1.514-.684 1.259-.637 1.05-.59.913-.484.825-.356.777-.28.751-.237.737-.291.73-.39.727-.407.75-.38.831-.368.963-.32 1.073-.215 1.131-.117 1.203-.064 1.227-.035 1.183-.018 1.131-.01 1.076-.006 1.042.038 1.034.16 1.048.285 1.051.397 1.05.5 1.049.517 1.02.477.934.424.837.362.784.303.755.246.741.214.734.19.71.175.615.141.481.084.426.048.437.03.459.02.532 0 .636-.188.761-.677 1.007-1.308 1.305-1.801 1.432-1.938 1.345-1.735 1.137-1.353.904-.957.665-.627.485-.374.405-.246.341-.198.29-.137.316-.082.495-.049.835-.026 1.168-.04 1.388-.085 1.56-.099 1.662-.067 1.613-.037 1.491-.02 1.338-.011 1.202-.006 1.14-.003 1.183-.002 1.343.054 1.465.248 1.502.504 1.471.656 1.336.65 1.124.536.942.424.813.386.702.349.615.253.537.19.507.184.485.173.46.16.472.16.496.17.547.132.575.073.517.039.468.021.472.012.502.006.625-.08.864-.391 1.116-.87 1.206-1.17 1.087-1.11.927-.901.834-.741.783-.693.752-.693.739-.642.694-.541.587-.41.482-.299.417-.242.38-.17.334-.093.282-.053.29-.029.388-.015.517-.009.61-.005.727.003.864.092.937.264.977.386.931.433.835.443.784.442.758.427.74.404.731.39.726.393.783.407.881.41.956.364 1 .293 1.013.245 1.018.173.95.094.846.051.791.028.788-.006.956-.183 1.267-.585 1.48-1.023 1.602-1.297 1.669-1.353 1.544-1.225 1.349-1.053 1.219-.897 1.06-.71.857-.542.635-.43.47-.339.425-.335.418-.412.413-.475.424-.548.443-.627.435-.657.38-.6.283-.497.235-.42.229-.332.183-.238.15-.184.146-.163.17-.122.197-.065.197-.036.198-.02.217-.01.269-.006.38-.003.516-.002.61 0 .663-.001.694 0 .778 0 .955 0 1.05 0 .971.04.859.102.864.115.937.122.909.15.825.169.761.149.642.133.527.15.497.127.502.115.511.138.513.109.511.064.474.04.457.023.524.015.606.008.73.005.905-.066.998-.264.981-.522.996-.804 1.08-1.135 1.092-1.461 1.027-1.625.962-1.577.857-1.469.684-1.332.528-1.124.4-.958.258-.957.14-1.06.076-1.145.04-1.138.023-1.087.013-1.172.006-1.356.004-1.49.002-1.62 0-1.691.002-1.672 0-1.73 0-1.779 0-1.724 0-1.601 0-1.35-.018-1.177-.108-1.21-.228-1.25-.299-1.228-.343-1.175-.353-1.033-.386-.938-.478-1.092-.662-1.506-.869-1.914-.883-1.967-.776-1.683-.699-1.385-.671-1.306-.696-1.396-.76-1.487-.76-1.47-.677-1.336-.62-1.123-.549-.94-.51-.839-.584-.853-.691-1-.75-1.08-.745-1.032-.698-.96-.612-.846-.554-.762-.545-.699-.54-.62-.582-.62-.647-.665-.683-.693-.708-.739-.776-.87-.882-1.013-.989-1.03-1.037-.95-.965-.862-.856-.796-.864-.776-.95-.837-1.008-.94-1.105-.966-1.215-.924-1.217-.88-1.184-.91-1.242-1.012-1.311-1.01-1.336-.94-1.326-.963-1.267-.995-1.184-.882-1.14-.769-1.185-.744-1.25-.72-1.35-.742-1.542-.771-1.728-.757-1.841-.751-1.904-.751-1.937-.749-1.951-.691-1.963-.61-1.968-.59-1.967-.58-1.966-.516-1.924-.447-1.783-.373-1.604-.326-1.413-.3-1.17-.26-1.031-.278-1.026-.297-.964-.218-.862-.121-.817-.066-.862-.036-.923-.02-.956-.063-1.092-.141-1.273-.132-1.304-.071-1.291-.04-1.37-.02-1.414-.012-1.393-.006-1.317-.04-1.202-.097-1.196-.094-1.26-.053-1.226-.03-1.068-.015-.911-.009-.827-.004-.812-.003-.91-.001-1.036-.001-1.103 0-1.101 0-1.071 0-1.12 0-1.215-.001-1.267.037-1.293.097-1.246.096-1.155.062-1.093.081-.991.12-.863.099-.752.095-.672.133-.666.153-.736.188-.807.207-.785.208-.799.255-.89.314-.964.351-1 .367-1.016.368-1.028.369-1.028.374-1.03.404-1.029.464-1.03.491-1.03.475-1.027.441-.958.427-.852.462-.794.489-.764.46-.75.42-.72.421-.655.412-.615.36-.596.342-.507.334-.362.296-.28.266-.58.293-.98.362.522 1.772.41 2.783"></path><path fill="#1d1d1d" d="m10874.311-993.936-.657 1.202-1.793 3.19-2.67 4.25-2.512 3.477-1.967 2.437-1.958 2.433-1.896 2.349-1.79 2.256-1.678 2.254-2.264 3.25-3.045 4.403-3.084 4.627-2.648 4.592-1.96 4.11-1.76 4.142-1.823 4.762-1.56 4.656-1.234 4.181-.873 3.863-.72 3.737-.81 3.768-.81 3.62-.483 3.123-.152 3.253-.134 3.412-.089 3.699-.02 3.992-.005 3.685.315 3.278 1.186 3.291 1.575 3.267 2.04 1.964 2.923.59 3.484-.845 3.411-1.544 2.984-1.452 2.876-1.297 3.151-1.408 3.283-1.245 3.548-.424 3.71-.1 3.153.193 2.85.717 2.961 1.27 2.93 1.267 2.744.793 2.56-1.361 2.611-3.418 2.478-2.887 2.217-1.988 2.618-1.225 3.304-.446 3.613-.148 3.273-.072 3.3-.033 3.265.042 3.536.704 3.494 1.349 2.797 1.319 2.689 1.073 2.793.6 2.691-1.337 2.515-2.636 2.49-2.173 2.61-1.78 2.916-.94 3.086-.054 2.922.624 2.783 1.27 2.868 1.544 2.885 1.306 2.905.694 3.038-.597 3.281-2.064 3.08-2.366 2.572-1.867 2.356-1.913 1.918-2.367 2.003-2.427 2.787-1.387 3.276-.235 3.412.038 3.113.244 3.11.527 3.06.607 2.806.162 2.651-1.612 2.195-3.011 1.785-3.156.978-3.06.174-3.063.035-3.133.034-3.17.038-3.418.032-3.454-.013-3.598-.366-3.325-1.1-3.326-1.569-3.763-1.55-3.536-1.406-2.928-1.406-2.74-1.433-2.815-1.716-2.912-2.136-3.121-2.008-2.767-1.928-2.275-2.244-2.382-2.525-2.61-2.61-2.467-2.38-2.18-2.691-2.219-2.924-2.287-2.519-1.938-2.578-1.94-2.932-2.08-2.846-1.706-2.838-1.408-3.406-1.457-3.706-1.443-3.785-1.28-3.798-1.098-3.575-.854-3.155-.642-3.092-.697-3.407-.466-3.62-.236-3.757-.217-4.006-.082-3.89-.147-3.236-.106-3.293.009-3.469.018-3.383.037-3.575.155-3.334.327-2.867.552-2.908.9-3.087 1.102-2.904 1.13-3.015 1.305-3.036 1.547-2.763 1.633-3.378 1.894-2.006 1.08a3.812 3.812 0 0 1-2.644-7.15l.461-.084 1.72-.94 2.676-1.686 2.945-1.677 2.967-1.49 3.158-1.37 3.244-1.28 3.027-1.085 3.142-.943 3.398-.668 3.465-.368 3.172-.223 3.211-.107 3.39.008 3.398.032 3.545.073 3.515.185 3.13.144 3.517.062 3.774.25 3.15.275 3.184.436 3.23.77 3.145.752 3.635.806 4.008 1.034 4.087 1.204 4.066 1.366 3.904 1.495 3.601 1.581 3.039 1.613 2.64 1.659 2.428 1.773 2.627 1.93 3.225 2.388 3.171 2.44 2.88 2.4 2.844 2.58 2.859 2.834 2.498 2.649 2.014 2.208 1.87 2.375 1.995 2.836 2.011 3.025 1.567 2.668 1.442 2.726 1.445 2.841 1.422 2.85 1.664 3.427 1.85 4.025 1.506 3.966.834 3.46.272 3.571.023 3.714.031 3.455.035 3.424.021 3.845-.058 3.96-.311 3.334-1.065 3.36-1.692 3.38-2.045 3.444-2.606 3.39-3.232 2.337-3.658.921-3.263-.087-2.94-.55-3.184-.657-3.268-.35-3.417.19-2.859 1.717-2.34 2.486-2.589 1.89-2.632 1.896-2.954 2.448-3.71 2.776-4.066 1.635-3.669.103-3.549-.675-3.235-1.19-2.878-1.506-2.888-1.519-3.051-.356-2.765 1.284-2.29 2.085-2.749 2.606-3.408 2.148-3.402.576-3.109-.575-2.91-1.038-2.622-1.175-3.034-1.442-3.38-1.009-3.373-.187-3.205.02-3.034.103-3.494.1-3.014 1.01-2.347 2.69-2.585 3.656-3.42 3.287-3.766 1.243-3.208-.476-2.896-.892-2.914-1.22-3.3-1.336-3.382-.609-3.214.076-3.168.597-3.04 1.185-2.846 1.269-2.792 1.335-2.929 1.433-2.895 1.366-3.36.914-3.678.1-3.18-.762-2.944-1.44-2.363-2.088-1.537-2.609-1.432-3.11-1.238-3.08-.646-3.061-.242-3.631-.035-3.766.005-3.45.124-3.518.27-3.463.28-3.074.461-3.508.81-3.753.902-3.56.838-3.688.952-4.016 1.233-4.274 1.513-4.565 1.824-5.048 1.941-4.744 2.029-4.135 1.759-3.333 1.466-2.67 1.61-2.587 2.37-3.433 3.075-4.378 2.388-3.37 1.766-2.4 1.783-2.287 1.813-2.338 1.877-2.511 1.789-2.386 2.238-3.231 2.486-3.936 1.725-3.033.633-1.215a3.06 3.06 0 0 1 5.398 2.882"></path><path fill="#1d1d1d" d="m10896.743-892.388-.017 1.194-.074 3.162-.325 3.727-.344 3.678-.182 3.7-.271 3.471-.469 3.43-.688 3.406-.762 3.273-.71 3.004-.69 2.791-.827 3.207-1.038 3.53-1.101 3.366-1.196 3.101-1.364 2.97-1.378 3.101-1.386 3.021-1.32 2.876-1.164 2.898-.954 3.077-.676 3.423-.338 3.586.158 3.402.782 3.198 1.287 3.024 1.572 2.957 1.915 3.002 1.95 2.624 2.09 2.162 2.601 1.997 2.686 1.54 2.815 1.106 3.5.951 3.821.706 4.1.595 4.606.462 4.422.205 3.638.041 3.064-.039 3.277-.071 3.269-.07 3.164-.043 3.442-.152 3.557-.394 3.55-.593 3.667-.679 3.592-.744 3.111-.796 3.25-1.065 3.144-1.177 2.999-1.155 3.27-1.219 3.037-1.194 2.788-1.245 2.626-1.16 2.725-1.187 2.624-1.401 2.278-1.682 2.055-2.01 1.82-2.364 1.81-2.826 1.746-3.014 1.487-2.832 1.296-3.016.701-3.22-.09-3.023-1.019-2.824-1.748-2.659-1.93-2.62-2.004-2.435-2.171-2.155-2.216-2.139-2.16-2.35-1.94-2.558-1.505-2.707-1.344-2.808-1.252-2.747-1.127-2.875-.9-2.934-.739-3.028-.773-3.105-.58-2.95-.403-2.888-.439-3.022-.386-3.376-.244-3.255-.078-2.876-.01-2.925.004-3.062.005-2.962.045-2.85.275-3.09.226-1.661a3.97 3.97 0 0 1 7.917.615l-.17 1.51-.267 3.124-.098 3.028.008 2.944.003 2.95-.005 2.98.148 3.094.314 2.98.42 3.254.417 3.267.595 3.113.816 3.255.831 3.147.999 3.017 1.247 3.02 1.5 3.153 1.658 2.776 1.828 2.298 2.046 2.183 2.198 2.027 2.112 2.28 1.82 2.438 1.692 2.288 1.642 2.418 1.552 2.8 1.013 3.321.231 3.255-.19 2.976-.612 2.922-1.06 2.782-1.294 2.664-1.336 2.533-1.397 2.441-1.687 2.773-1.79 2.697-2.008 2.35-2.3 2.145-2.296 1.735-2.428 1.53-2.748 1.343-2.91 1.225-2.822 1.28-3.065 1.248-3.327 1.153-3.428 1.281-3.14 1.255-2.8 1.075-3.32 1.025-3.746.887-3.429.64-3.04.516-3.07.473-3.078.439-3.006.291-3.212.052-3.165-.042-3.272-.072-3.292-.079-3.097-.063-3.722-.038-4.755-.06-4.952-.236-4.357-.418-3.617-.517-3.53-.812-3.234-1.058-2.852-1.261-2.977-1.762-2.6-2.062-2.37-2.352-2.229-2.805-1.995-2.919-1.656-2.738-1.35-2.54-1.321-3.01-1.14-3.4-.622-3.357-.092-3.806.238-3.494.393-2.819.63-2.923 1.08-3.316 1.294-3.268 1.368-2.944 1.325-2.842 1.193-2.687 1.335-2.912 1.278-3.188 1.08-3.179.934-3.113.857-3.192.85-3.147.745-2.847.8-3.11.775-3.368.537-3.16.318-3.31.25-3.392.414-3.07.334-3.183.05-2.933-.017-1.194a3.347 3.347 0 0 1 6.693 0"></path></symbol><symbol id="icon-shroom-7" viewBox="10911.748 -634.862 224.78 255.484"><path fill="#e8e8e8" d="M10946.087-520.147q.038-1.366.1-2.403t.135-1.88.15-1.57.2-1.403.317-1.395.421-1.49.462-1.507.47-1.444.445-1.34.427-1.212.485-1.202.615-1.27.672-1.292.657-1.278.714-1.294.78-1.286.8-1.24.835-1.326.942-1.55 1.11-1.74 1.19-1.791 1.137-1.75 1.05-1.7 1.027-1.601 1.126-1.562 1.22-1.68 1.24-1.8 1.306-1.815 1.378-1.72 1.402-1.655 1.481-1.673 1.592-1.667 1.715-1.684 1.933-1.78 2.206-1.913 2.556-2.092 3.135-2.417 3.646-2.733 3.709-2.742 3.545-2.466 3.32-2.078 3.087-1.769 2.865-1.518 2.65-1.234 2.532-1.01 2.47-.888 2.49-.796 2.6-.758 2.811-.79 3.096-.83 3.274-.842 3.31-.768 3.251-.627 3.025-.485 2.8-.383 2.653-.262 2.36-.143 2.032-.078 1.855-.042 1.707-.023 1.554-.013 1.508-.007 1.557-.003 1.575-.002 1.517-.001 1.467-.001 1.436 0 1.328.036 1.2.152 1.128.276 1.084.35 1.068.394 1.06.459 1.104.528 1.15.556 1.117.612 1.121.65 1.171.619 1.211.65 1.241.701 1.2.682 1.073.682.936.667.9.625.95.652.985.713 1.02.71 1.033.672 1.02.69 1.012.717 1.015.694.951.637.848.595.792.595.761.634.745.678.736.701.729.712.686.719.624.72.628.726.685.8.743.974.784 1.131.756 1.177.69 1.135.649 1.093.629 1.072.622 1.089.615 1.144.603 1.138.597 1.111.54 1.097.425 1.067.325 1.043.302.96.283.857.232.803.215.768.205.75.197.744.186.692.159.616.138.617.147.653.134.627.118.594.138.603.122.593.106.532.121.475.098.467.053.474.03.442.015.43.009.452.004.445.003.433.001.455 0 .448.001.408 0 .397 0 .428 0 .484 0 .544 0 .558 0 .565 0 .616 0 .665 0 .695-.038.711-.142.72-.26.724-.344.795-.404.971-.484 1.114-.541 1.124-.511 1.033-.456.913-.465.827-.542.783-.637.827-.707.92-.731.902-.72.823-.67.78-.628.758-.68.75-.804.72-.873.665-.842.634-.792.609-.763.57-.746.51-.736.45-.802.417-.976.449-1.138.534-1.17.577-1.141.581-1.189.583-1.273.593-1.352.633-1.394.708-1.306.765-1.211.73-1.211.664-1.18.644-1.12.642-1.151.628-1.238.617-1.293.668-1.255.697-1.162.623-1.161.592-1.158.612-1.1.558-1.07.48-1.052.436-1.081.417-1.142.394-1.216.348-1.287.336-1.263.356-1.122.335-.96.28-.923.239-1.04.171-1.172.093-1.245.062-1.306.084-1.365.116-1.351.096-1.292.104-1.213.164-1.061.144-.958.078-.97.042-.95.024-.936.049-.977.102-1.001.1-1.012.063-.95.033-.849.018-.863.065-.94.142-.914.13-.83.07-.783.04-.758.02-.744.012-.734.006-.73.003-.708.043-.652.106-.614.098-.638.053-.63.03-.583.015-.605.009-.614.005-.574.002-.55.002-.535 0-.529 0-.508 0-.498.001-.478 0-.425 0-.402 0-.43 0-.451 0-.462 0-.505-.011-.53-.057-.5-.094-.445-.074-.395-.04-.377-.05-.414-.093-.452-.105-.425-.069-.378-.035-.347-.019-.33-.01-.33-.033-.377-.087-.477-.101-.533-.095-.534-.105-.571-.095-.587-.058-.524-.07-.456-.113-.408-.099-.352-.055-.296-.033-.273-.038-.303-.073-.359-.084-.366-.056-.384-.036-.446-.062-.485-.107-.525-.108-.557-.114-.527-.124-.462-.087-.404-.048-.364-.028-.364-.015-.41-.009-.476-.004-.514-.003-.517-.001-.564 0-.633-.001-.625 0-.582 0-.605 0-.663 0-.647 0-.592 0-.607 0-.663 0-.694 0-.662 0-.597 0-.61 0-.663 0-.67 0-.687.038-.801.142-.98.212-1.084.227-1.087.283-1.035.35-.94.35-.844.313-.79.298-.76.302-.747.287-.798.259-.895.273-.96.308-1.066.288-1.189.244-1.205.253-1.143.295-1.144.295-1.145.272-1.024.274-.956.295-.99.292-1.01.241-1.02.198-.955.2-.85.203-.794.188-.764.182-.749.142-.738.08-.686.043-.574.024-.502.013-.494.007-.465.004-.442.002-.434 0-.41.002-.387 0-.34 0-.304 0-.33 0-.42 0-.541 0-.582 0-.55 0-.537 0-.507 0-.408-.018-.32-.076-.266-.142-.212-.161-.19-.181-.204-.252-.256-.314-.303-.37-.324-.429-.34-.44-.334-.434-.268-.426-.194-.37-.162-.315-.155-.302-.152-.3-.136-.326-.119-.355-.113-.36-.132-.378-.16-.377-.16-.35-.154-.355-.116-.36-.065-.364-.037-.401-.02-.417-.012-.432-.006-.467-.003-.487-.002-.548-.001-.824 0-1.152 1.149-1.937 1.189-2.675"></path><path fill="#1d1d1d" d="m10942.75-518.875.07-1.365.195-3.339.313-3.528.63-3.223.912-3.172 1.2-3.502 1.435-3.388 1.458-2.774 1.598-2.709 1.766-2.82 2.172-3.325 2.27-3.459 2.25-3.333 2.44-3.426 2.706-3.567 3.036-3.563 3.344-3.454 2.904-2.68 2.324-1.923 2.695-2.06 3.332-2.303 3.838-2.547 3.85-2.58 3.674-2.404 3.42-2.122 3.138-1.848 2.897-1.618 2.721-1.368 3.86-1.616 5.167-1.82 4.149-1.235 3.13-.822 3.31-.813 3.38-.751 3.35-.634 3.103-.518 2.853-.432 3.859-.409 4.356-.324 3.465-.184 3.132-.124 3.083-.09 2.956-.074 2.965.12 3.438.752 3.733 1.442 3.566 1.785 3.055 1.674 2.54 1.497 2.638 1.732 2.878 1.949 3.008 2.039 2.905 2.03 2.63 2.126 2.391 2.365 2.28 2.654 1.977 2.73 1.804 2.955 1.642 2.897 1.54 2.962 1.431 3.36 1.049 3.33.861 3.098.711 2.985.583 3.232.256 3.2.034 3.216-.206 3.609-.848 3.47-1.25 2.78-1.408 2.724-1.911 2.921-2.206 2.718-2.486 2.628-2.655 2.316-2.558 1.804-3.019 1.658-3.5 1.67-3.139 1.484-3.14 1.641-3.513 1.981-3.085 1.631-3.145 1.637-3.54 1.854-3.5 1.6-3.144 1.113-3.112.897-3.525.865-3.774.492-3.37.212-3.003.306-3.181.282-3.528.243-3.49.316-3.015.265-3.002.146-3.062.21-3.04.206-2.966.039-3.204-.06-3.208-.302-2.923-.44-2.973-.485-2.943-.48-2.924-.461-3.061-.258-3.12-.007-3.16-.005-3.031.022-3.126.423-3.307.993-2.938 1.059-2.984.919-3.315.825-3.252.765-3.251.83-3.359.813-3.095.599-2.828.27-2.978.068-3.308-.007-3.133-.672-2.394-1.843-1.782-2.408-1.304-2.505-.945-2.924-.418-4.124-.007-2.491a3.934 3.934 0 0 1 7.868-.005l.076 2.481.629 3.888 1.856 2.132 2.838.741 3.125-.028 3.304-.444 3.52-.846 3.452-.876 3.494-.879 3.573-.952 3.24-1.086 3.264-1.189 3.474-.985 3.579-.43 3.462-.056 3.162-.004 2.984.002 2.845.125 3.007.423 3.185.6 3.074.572 3.004.49 3.163.35 3.086.144 3.09.008 3.032-.155 2.805-.153 2.94-.146 3.43-.241 3.498-.237 3.244-.205 3.649-.278 4.064-.37 3.736-.407 3.513-.774 3.388-1.005 2.947-1.072 3.1-1.478 3.054-1.64 3.03-1.639 3.38-1.833 3.197-1.833 3.408-1.804 3.722-1.839 3.19-1.624 2.546-1.587 2.373-1.98 2.196-2.251 2.042-2.564 1.745-2.814 1.438-3.073.78-3.124.043-3.104-.05-3.248-.347-3.032-.657-3.034-.75-3.008-.792-2.752-1.22-2.915-1.674-3.147-1.833-3.168-1.94-2.941-2.199-2.715-2.5-2.538-2.619-2.106-2.81-1.953-2.97-2.087-2.797-1.998-3.022-1.929-3.411-1.953-3.218-1.732-2.854-1.286-2.905-.678-3.043-.203-3.036-.075-3.07-.087-3.179-.089-3.656-.037-4.533.209-3.962.393-2.946.452-3.152.62-3.242.786-3.237.87-4.396 1.207-5.215 1.465-4.868 1.574-3.792 1.505-2.833 1.419-3.037 1.689-3.219 2.034-3.417 2.528-3.568 2.905-3.453 2.919-2.938 2.53-2.418 2.124-2.944 2.744-3.32 3.33-2.83 3.18-2.583 3.364-2.444 3.447-2.186 3.229-2.128 3.343-2.187 3.486-1.904 3.052-1.896 3.132-1.918 3.49-1.544 3.563-1.122 3.278-.84 3.247-.529 3.603-.152 3.152-.007 1.367a3.3 3.3 0 0 1-6.596-.187"></path><path fill="#1d1d1d" d="m11007.335-509.018-.069 1.64-.064 3.822.134 3.577.245 3.138.166 3.329.085 3.19.061 3.068.059 3.187.032 3.46-.24 3.521-.505 3.172-.546 2.845-.707 3.11-.805 3.367-.877 3.4-1.011 3.15-1.091 3.097-1.135 3.156-1.195 3.159-1.228 3.263-1.192 3.233-1.143 3.369-1.031 3.13-1.053 2.752-1.166 2.679-.967 2.714-.358 2.895.624 3.119 1.678 2.714 2.5 1.792 3.157 1.03 3.367.46 3.557.202 3.718.065 3.935.042 3.989.063 3.836.077 3.922.067 4.182.074 4.466.008 4.204-.258 3.514-.483 2.994-.669 3.054-.847 3.019-.945 2.785-.954 2.988-.982 2.963-.947 2.768-.895 3.085-1.53 2.897-1.813 2.127-2.106 1.509-2.86.743-2.922.12-2.865-.018-3.045-.88-2.788-1.738-2.501-1.685-2.64-1.658-2.858-1.395-2.96-.812-2.932-.46-2.88-.466-2.828-.574-2.916-.639-3.237-.502-3.26-.415-2.996-.481-2.974-.451-2.97-.396-3.119-.468-3.157-.71-3.155-.848-3.053-.793-2.9-.562-2.977-.42-2.959-.531-3.035-.698-3.485-.401-1.91a3.988 3.988 0 0 1 7.883-1.209l.29 1.463.636 3.1.616 3.084.477 3.262.64 3.387.834 3.14.793 3.006.66 2.906.513 3.213.406 3.213.442 2.969.53 3.13.425 3.13.432 2.974.59 2.901.655 3.169.522 3.317.663 3.106 1.168 2.837 1.587 2.766 1.725 2.702 1.61 2.502 1.23 2.579.496 3.095.022 3.35-.064 3.016-.444 2.984-.966 2.947-1.224 2.661-1.536 2.466-2.253 2.211-2.572 1.743-2.423 1.485-2.818 1.392-3.389 1.197-3.217.965-2.965.9-3.089.942-3.213.867-3.067.747-2.998.643-3.503.55-4.315.468-4.744.29-4.415.1-3.983.064-3.94.077-3.645.071-3.609.043-3.871.028-3.94-.013-3.883-.205-3.651-.52-3.468-.98-2.885-1.513-2.338-1.916-2.04-2.101-1.758-2.296-.999-2.951-.181-3.176.047-3.057.474-3.133 1.025-2.808 1.212-2.589 1.232-3.043 1.041-3.126.989-2.906 1.118-2.922 1.102-2.928 1.183-3.019 1.178-3.088 1.025-2.896.955-2.667.922-3.12.904-3.411.773-3.003.666-3.02.643-3.449.344-3.367.074-3.3.057-3.185.058-3.058.063-3.125.03-3.066-.073-3.205-.066-3.85-.064-3.823-.07-1.639a3.31 3.31 0 0 1 6.62 0M10956.29-552.671l1.306.029 3.035.142 3.311.185 3.04.048 2.963-.046 2.447-1.106 2.049-2.123 2.403-2.345 1.827-2.626.76-2.943.226-3.198-.007-3.125-.003-3.057-.12-2.863-.12-1.355a3.925 3.925 0 0 1 7.77-1.11l.172 1.68.17 3.1-.004 2.99-.01 3.211-.062 3.273-.522 3.265-1.088 3.166-1.758 2.961-2.12 2.438-2.066 2.034-2.284 2.008-2.493 1.888-3.092 1.167-3.253.239-3.047-.065-3.052-.212-2.854-.31-2.556-.176-1.165-.04a3.563 3.563 0 0 1 .198-7.124M11012.134-560.625l.013 1.088.763 2.444 1.928 2.189 2.343-.107 1.842-2.388.679-1.448a3.823 3.823 0 0 1 7.339 2.144l-.88 2.097-1.786 3.25-2.316 2.399-3.04 1.852-3.184.56-3.183-.69-2.664-1.582-1.971-2.19-1.696-2.485-1.031-3.095-.255-2.95.014-1.088a3.542 3.542 0 0 1 7.084 0"></path><path fill="#1d1d1d" d="M11020.271999999999-559.006a3.405 3.405 0 1 1 6.81 0 3.405 3.405 0 1 1-6.81 0M11052.714-552.513l1.265.584 2.72 1.054 3.426.468 3.36-.41 2.877-1.59 2.456-2.41 1.886-2.605 1.58-2.92.827-3.208-1.639-1.844-3.327-.682-2.797-1.108.244-.617.89 1.043-.63 1.058a3.879 3.879 0 0 1-7.336-2.526l1.008-2.075 2.093-2.952 2.5-1.365 3.273.206 3.246 1.185 2.788.84 2.736.854 2.429 1.456 1.508 3.021.292 3.54-.658 3.361-1.37 3.548-1.82 3.152-2.35 3.259-2.948 3.135-3.43 2.322-3.79 1.273-3.832.278-3.377-.286-3.018-.94-2.776-1.309-1.246-.61a3.421 3.421 0 0 1 2.94-6.18M10971.71-515.866l.725-.758 1.836-2.007 2.154-2.391 2.035-2.305 2.156-1.935 2.593-1.352 2.925-1.101 3.075-.795 3.026-.451 3.199-.109 3.143.853 2.581 1.724 2.516 2.339 2.126 2.621 1.306 2.654.923 2.979.778 2.761.36 1.215a3.948 3.948 0 0 1-7.43 2.673l-.716-2.514-1.35-4.192-1.635-2.765-2.501-1.904-2.934-.692-3.103.52-3.22.906-2.557 1.596-2.158 2.23-2.228 2.281-1.778 1.918-.703.779a3.51 3.51 0 0 1-5.144-4.778M11031.093-536.696l-.112 1.162-.117 2.773.024 3.071 1.326 2.486 2.59 1.673 2.824.781 2.992.127 1.615-.48.158-.471a3.92 3.92 0 0 1 4.645 6.315l-1.157.851-2.774 1.246-3.054.38-2.918-.226-3.014-.523-3.301-1.324-2.888-1.961-2.431-2.313-1.676-3.41-.33-3.622.124-3.22.224-2.85.134-1.206a3.577 3.577 0 0 1 7.116.74"></path><path fill="#1d1d1d" d="M11041.684-522.418a3.034 3.034 0 1 1 6.069 0 3.034 3.034 0 1 1-6.069 0"></path><path fill="#1d1d1d" d="m11042.718-542.362 1.141.83 2.227 1.933 2.305 2.59 1.74 2.994.56 2.97-.268 3.368-1.549 3.392-1.237 1.487a3.818 3.818 0 0 1-5.573-5.221l.547-1.102.303-2.483-1.365-2.521-2.063-1.836-.943-.695a3.535 3.535 0 0 1 4.175-5.706M11020.355-597.447l-.016 1.115.046 2.721.45 3.279.978 3.002 1.165 2.68 1.856 2.347 3.022 1.018 3.437.013 3.27-.042 3.16-.607 3.022-1.504 2.727-2.084 2.453-2.317 1.56-2.608.915-2.95.589-3 .075-3.779.005-2.284a3.928 3.928 0 0 1 7.857 0l.012 1.092.002 2.575-.215 2.939-.646 2.89-.57 2.938-.7 2.903-1.506 2.52-1.924 2.116-2.266 2.253-2.736 2.2-2.66 1.695-2.503 1.297-2.81.88-3.466.37-3.684.028-3.418-.083-3.088-.346-2.968-1.235-2.682-2.186-1.906-2.899-1.486-3.292-1.107-3.02-.694-3.093-.338-3.503-.072-2.924-.016-1.115a3.438 3.438 0 0 1 6.876 0M11091.454-539.012l-.066-1.084-.21-2.823-.414-3.17-.663-3.076-.807-3.114-.928-2.823-.967-2.787-.8-3.122-.415-3.208-.086-3.086.411-3.111 1.374-2.98 2.087-2.471 2.267-1.893 2.079-1.581.955-.727a3.897 3.897 0 0 1 4.793 6.145l-1.241.985-2.447 1.866-1.888 2.186-.698 2.775.126 2.912.522 2.934.847 2.836.917 3.155.834 3.601.644 3.513.356 3.6.192 2.96.093 1.082a3.443 3.443 0 0 1-6.867.506"></path><path fill="#e085f4" d="m10965.416-557.114 1.213-1.05 2.75-2.438 2.258-2.993.914-2.609.197-1.003a3.368 3.368 0 0 1 6.616 1.26l-.37 1.928-.884 3.25-1.771 2.454-2.73 2.415-2.603 2.422-1.13 1.139a3.267 3.267 0 0 1-4.46-4.775M11014.976-562.493l-.102 1.794-.071 3.738-1.454 1.3-1.415-2.916.07-2.274a3.624 3.624 0 0 1 7.036 1.737l-.238 1.323-.682 2.755-1.51 2.608-2.313 1.812-3.043-.034-2.325-2.41-.547-3.793-.12-3.846-.104-1.794a3.409 3.409 0 0 1 6.818 0m4.166 2.342.08 1.103.105 2.249.025 1.145a3.735 3.735 0 0 1-7.47.002l.026-1.144.01-2.08-.016-.938a3.624 3.624 0 0 1 7.24-.337m-7.258 4.399.044-1.368 1.066-3.075.2-1.06-.822.65a3.818 3.818 0 0 1 7.57-.995l-.285 2.327-.296 3.023-.01.696a3.735 3.735 0 0 1-7.467-.198M11033.98-591.278h-.868l-.829.113.04.112a3.59 3.59 0 0 1-6.343-3.367l1.248-1.499 3.132-1.877 2.752-.378h.869a3.448 3.448 0 0 1 0 6.896m-3.913-4.93 1.335.331 3.29.13 3.413-.713 2.535-1.078 1.077-.568a3.686 3.686 0 0 1 3.244 6.619l-1.445.668-3.044 1.258-3.917 1.031-3.803.274-3.001-.588-1.515-.42a3.59 3.59 0 0 1 1.831-6.944m13.093 5.092-.96-.042-2.966-.092-3.6-.06-3.176.148.861-.45 3.904-1.238 2.757-1.187 2.752-1.278 1.738 1.193 1.653 2.346.276 1.992-1.98 2.664-2.332 2.003-3.538 1.189-4.403.844-3.71.898-3.005.07-2.622-1.763-1.648-2.498-.63-1.012a3.663 3.663 0 0 1 5.74-4.553l.843 1.086 1.265 2.59-.763.454.723-1.606 3.268-.966 2.841-.477 2.726-1.426 2.594-2.71 2.605-2.275 3.258-.483 2.478 2.567-.404 3.25-2.23 1.896-3.483 1.858-4.588 2.487-3.976 2.219-3.052.909-3.057-.006-2.811-.845-2.198-2.537-1.266-3.37-.206-3.095 1.04-2.748 2.385-1.87 2.866-1.01 3.144-.416 3.374-.048 3.64-.042 3.136.021 1.095.057a3.686 3.686 0 0 1-.358 7.362M11067.61-567.66l-.022 1.194.007 3.272.039 3.66-.095 3.285-1.484 3.207-3.157 2.078-1.776.57a3.627 3.627 0 0 1-1.37-7.123l.493-.216.502-1.8.039-3.661.007-3.272-.022-1.194a3.42 3.42 0 0 1 6.839 0m-10.239 11.765.678-1.072 1.997-2.432 2.915-2.981 1.597-1.622a3.694 3.694 0 0 1 5.533 4.896l-.668.72-1.84 1.766-2.151 2.076-1.455 1.777-.475.75a3.627 3.627 0 0 1-6.13-3.878m11.36-9.075.063.024.064.024a3.698 3.698 0 0 1-2.815 6.84l-.062-.028-.062-.027a3.694 3.694 0 0 1 2.811-6.833m2.364 4.097-.315 1.696-.89 3.077-.574 1.38a3.743 3.743 0 0 1-6.891-2.921l.54-1.25.692-2.246.149-.994a3.698 3.698 0 0 1 7.289 1.258m-8.387 2.69.93-1.453 2.22-3.042 1.29-1.59a3.648 3.648 0 0 1 5.746 4.495l-1.09 1.45-1.93 2.798-.841 1.346a3.743 3.743 0 0 1-6.325-4.003M11096.585-568.073l.076 1.746.36 3.601.95 3.145 1.564 2.67.898 1.382a3.479 3.479 0 0 1-6.038 3.459l-.42-.818-1.266-2.208-1.299-3.087-.734-3.743-.539-3.776-.257-1.729a3.368 3.368 0 0 1 6.705-.642m-2.647 14.13.021-1.298-.006-2.848-.043-3.177-.003-2.542.012-.914a3.613 3.613 0 0 1 7.227 0l.012.914-.003 2.545-.049 3.193-.124 2.989-.092 1.426a3.479 3.479 0 0 1-6.952-.288"></path><path fill="#e085f4" d="m11100.917-564.718-.025 1.254.011 2.914.16 3.203.225 2.943.253 3.28.149 1.88a3.576 3.576 0 0 1-7.133.533l-.152-2.095-.212-3.686-.064-2.995.035-3.063.012-2.914-.026-1.254a3.383 3.383 0 0 1 6.767 0M11032.819-532.37l-.861-1.211-1.68-2.555-1.862-3.391-1.494-2.838-.45-.789a3.284 3.284 0 0 1 5.856-2.974l.737 1.65 1.974 3.694 2.178 3.193.94 1.15a3.357 3.357 0 0 1-5.338 4.072m-.213-12.983.278 1.067 1.003 2.467.99.904.264-.496a3.709 3.709 0 0 1 6.527 3.523l-.99 1.575-2.51 2.377-3.44.888-3.84-1.344-2.549-2.775-1.133-2.723-.756-2.708-.256-1.33a3.284 3.284 0 0 1 6.412-1.425m5.233 9.369-1.254-.21-.05 1.034-.22 1.262.567-.506 1.993-.523a3.842 3.842 0 0 1 1.906 7.444l-2.29.53-3.841.025-2.608-2.047-1.79-2.859-1.218-2.649-.769-2.832.073-2.862 1.538-2.311 3.477-1.127 3.959.06 1.658.24a3.709 3.709 0 0 1-1.131 7.33M10985.308-519.828l1.63.077 3.763.087 3.521.253 1.388.243a3.362 3.362 0 0 1-1.59 6.534l-.615-.244-2.726-.235-3.741.087-1.63.078a3.44 3.44 0 0 1 0-6.88m12.695 4.993-.012.048-.013.047a3.367 3.367 0 0 1-6.387-2.137l.018-.045.018-.045a3.362 3.362 0 0 1 6.376 2.132m-3.031 2.389-1.048.1-2.454.152-2.817.095-3.284-1.046-1.668-3.34 1.484-3.184 2.7-1.457 2.913-.654 2.964.277 1.933.376.464-.029a3.827 3.827 0 0 1-.543 7.635l-1.54-.4-2.759-1.159-1.404-2.471 1.372-1.66 2.435.047.877-.007a3.367 3.367 0 0 1 .375 6.725"></path></symbol></svg>