<svg xmlns="http://www.w3.org/2000/svg" direction="ltr" width="100%" height="100%" viewBox="10798.433465149814 -1042.317017268489 243.1487537009234 286.2986358636588" stroke-linecap="round" stroke-linejoin="round" data-color-mode="light" class="tl-container tl-theme__force-sRGB tl-theme__light" style="background-color: rgb(249, 250, 251);"><defs/><g transform="matrix(1, 0, 0, 1, 10871.6122, -995.377)" opacity="1"><g transform="scale(1)"><path fill="#e8e8e8" d="M-0.6452,1.2084 Q-1.2905,2.4168 -1.8376,3.3865 T-2.9513,5.2896 -4.1888,7.278 -5.6531,9.4677 -7.3571,11.767 -9.2349,14.1783 -11.1524,16.6506 -13.0072,18.9942 -14.7937,21.2654 -16.5157,23.5931 -18.1365,25.858 -19.6224,27.993 -21.0782,30.144 -22.6522,32.3993 -24.2791,34.7275 -25.8276,37.1911 -27.215,39.71 -28.4188,41.9991 -29.4454,44.0196 -30.3344,45.9623 -31.2262,48.0156 -32.2037,50.3227 -33.1756,52.8682 -34.06,55.4454 -34.8808,57.8438 -35.6123,60.0468 -36.2451,62.1459 -36.8219,64.1884 -37.3158,66.1978 -37.7121,68.1892 -38.0874,70.1002 -38.483,71.899 -38.8989,73.7098 -39.3417,75.5772 -39.8015,77.407 -40.2158,79.1845 -40.4959,80.9312 -40.6482,82.5381 -40.7311,83.9617 -40.7762,85.2445 -40.8395,86.3916 -40.9537,87.4647 -41.0569,88.5273 -41.113,89.6435 -41.1436,90.8548 -41.1602,92.2047 -41.1692,93.7712 -41.1741,95.5262 -41.1768,97.3816 -41.1783,99.2892 -41.1608,101.1592 -41.0784,102.8445 -40.8853,104.256 -40.5774,105.4343 -40.2024,106.5108 -39.7954,107.5273 -39.3301,108.5112 -38.7897,109.5868 -38.2426,110.7123 -37.7604,111.7259 -37.3612,112.5691 -37.062,113.2125 -36.8148,113.6582 -36.498,113.9965 -36.0475,114.3241 -35.5288,114.6437 -35.0118,114.9202 -34.4934,115.1618 -33.9743,115.3867 -33.4571,115.6002 -32.9682,115.8053 -32.4879,116.0081 -31.9941,116.1754 -31.5226,116.2778 -31.054,116.3335 -30.5916,116.3638 -30.1303,116.3826 -29.5944,116.3951 -28.9722,116.4019 -28.3054,116.3942 -27.6144,116.3262 -26.9079,116.1524 -26.0926,115.8275 -24.9765,115.2906 -23.5121,114.5926 -21.8855,113.8664 -20.3713,113.1818 -19.1122,112.5448 -18.0624,111.9544 -17.1493,111.4713 -16.3243,111.115 -15.5471,110.8346 -14.796,110.5977 -14.0591,110.3069 -13.3299,109.9161 -12.6026,109.5098 -11.8513,109.1291 -11.0208,108.7624 -10.0583,108.4421 -8.9852,108.2268 -7.8542,108.1097 -6.6507,108.046 -5.4238,108.0113 -4.241,107.9925 -3.1097,107.9822 -2.0337,107.9767 -0.9923,108.0147 0.0416,108.1744 1.0897,108.4597 2.1409,108.8565 3.1916,109.3574 4.2397,109.8739 5.259,110.3509 6.1942,110.7746 7.0313,111.1373 7.8151,111.4395 8.5697,111.686 9.3108,111.8998 10.0446,112.0892 10.7539,112.2651 11.37,112.4064 11.8511,112.4901 12.2769,112.538 12.7138,112.5685 13.1726,112.5874 13.705,112.5886 14.3411,112.4 15.1021,111.7228 16.1089,110.4151 17.4136,108.6139 18.8461,106.6764 20.1908,104.9407 21.3281,103.5883 22.2319,102.6315 22.8968,102.0038 23.3816,101.6304 23.7867,101.384 24.1279,101.1861 24.4184,101.0488 24.7338,100.9673 25.2291,100.9184 26.064,100.8917 27.2318,100.8522 28.6195,100.7668 30.1793,100.668 31.8417,100.6005 33.4552,100.5638 34.9462,100.5438 36.284,100.533 37.486,100.527 38.6256,100.5238 39.8086,100.5221 41.1522,100.5759 42.6172,100.824 44.1187,101.3283 45.5899,101.9835 46.926,102.634 48.0496,103.1702 48.9914,103.5942 49.8047,103.9799 50.5071,104.3288 51.1217,104.5824 51.659,104.7728 52.1656,104.9562 52.651,105.1289 53.1111,105.289 53.5826,105.4491 54.0784,105.6182 54.6263,105.7513 55.2003,105.8237 55.7177,105.863 56.1862,105.8844 56.6576,105.8961 57.1603,105.9024 57.7849,105.8215 58.6491,105.431 59.7644,104.5618 60.9708,103.3914 62.058,102.2804 62.9846,101.3796 63.8193,100.6388 64.6016,99.9462 65.3533,99.2525 66.0928,98.6107 66.7869,98.07 67.3743,97.6596 67.8557,97.3611 68.2726,97.1189 68.6522,96.9484 68.9863,96.8557 69.2685,96.8029 69.5587,96.7742 69.9469,96.7586 70.4636,96.7501 71.073,96.7455 71.8012,96.7476 72.6648,96.8399 73.602,97.1044 74.5792,97.49 75.5098,97.9232 76.3444,98.3663 77.129,98.808 77.8864,99.2353 78.6268,99.6387 79.3578,100.0292 80.0839,100.4217 80.8664,100.8291 81.7481,101.2399 82.7043,101.6025 83.7033,101.8955 84.7164,102.1415 85.7349,102.3141 86.6857,102.408 87.5313,102.4591 88.3218,102.4869 89.1099,102.4814 90.0653,102.2984 91.3328,101.7132 92.8135,100.6903 94.4148,99.3928 96.0838,98.0395 97.6279,96.8154 98.9764,95.7618 100.1955,94.865 101.2555,94.1559 102.1125,93.6128 102.7475,93.1829 103.2183,92.8441 103.6432,92.5094 104.0612,92.097 104.4734,91.6218 104.8982,91.0738 105.3413,90.4473 105.7762,89.7896 106.1564,89.1902 106.4385,88.693 106.674,88.2721 106.9025,87.9406 107.086,87.7032 107.236,87.5193 107.3815,87.3555 107.5518,87.2344 107.7493,87.1686 107.9457,87.1327 108.1438,87.1133 108.3609,87.1026 108.6295,87.0969 109.0105,87.0937 109.5256,87.092 110.1363,87.0911 110.7992,87.0906 111.4927,87.0903 112.2712,87.0902 113.226,87.0901 114.2766,87.0901 115.2472,87.1311 116.1057,87.2332 116.9695,87.348 117.9068,87.4698 118.8157,87.6203 119.6407,87.7889 120.4019,87.9376 121.044,88.0709 121.5711,88.221 122.0677,88.3482 122.5703,88.463 123.0809,88.6007 123.5935,88.7098 124.1049,88.7738 124.5792,88.8131 125.0356,88.8368 125.5597,88.8519 126.1663,88.8602 126.8953,88.8646 127.8003,88.7987 128.7988,88.5348 129.7798,88.0128 130.7762,87.2089 131.8564,86.074 132.9479,84.613 133.9748,82.9883 134.9371,81.4113 135.7934,79.9424 136.4781,78.6098 137.0057,77.4858 137.4066,76.5279 137.6635,75.5712 137.8033,74.5105 137.8793,73.3657 137.9207,72.2277 137.9432,71.1412 137.9554,69.9687 137.9621,68.6127 137.9657,67.1226 137.9676,65.5026 137.9687,63.812 137.9693,62.1398 137.9696,60.4094 137.9698,58.6313 137.9699,56.907 137.9699,55.3055 137.97,53.9555 137.9517,52.7788 137.8438,51.5687 137.6163,50.3198 137.317,49.091 136.9741,47.9163 136.6211,46.8829 136.2353,45.9445 135.7564,44.8526 135.0945,43.3466 134.2261,41.433 133.3432,39.4662 132.5666,37.783 131.8682,36.3977 131.1964,35.0923 130.5004,33.6959 129.741,32.2089 128.9813,30.7388 128.3035,29.4033 127.684,28.28 127.135,27.3407 126.6243,26.5013 126.0409,25.648 125.3497,24.648 124.5997,23.5682 123.8543,22.5362 123.1569,21.5758 122.545,20.7295 121.991,19.9682 121.4456,19.2691 120.905,18.6493 120.3236,18.0295 119.6767,17.364 118.9942,16.6713 118.2855,15.932 117.5101,15.0624 116.6277,14.049 115.6392,13.0189 114.6022,12.0686 113.6367,11.2074 112.7809,10.4106 111.9164,9.6351 110.9673,8.7983 109.9585,7.8574 108.8534,6.8919 107.6389,5.9676 106.4219,5.0886 105.2377,4.1773 103.9961,3.1662 102.6846,2.1556 101.3487,1.216 100.0223,0.2534 98.7559,-0.7422 97.5722,-1.6236 96.4312,-2.3926 95.2473,-3.137 93.9968,-3.8566 92.6462,-4.5991 91.1044,-5.3702 89.3764,-6.127 87.5358,-6.8785 85.6316,-7.6293 83.6952,-8.3775 81.7434,-9.0695 79.7811,-9.6785 77.8129,-10.2697 75.8462,-10.8489 73.8803,-11.3647 71.9559,-11.8117 70.1725,-12.1849 68.5685,-12.511 67.1556,-12.8115 65.9857,-13.0707 64.9548,-13.3486 63.9289,-13.6456 62.965,-13.8642 62.1031,-13.9854 61.2855,-14.0513 60.4234,-14.0872 59.5007,-14.1067 58.5451,-14.1698 57.4529,-14.3112 56.1794,-14.4429 54.8755,-14.5145 53.5848,-14.5535 52.2146,-14.5747 50.8012,-14.5862 49.4076,-14.5925 48.0908,-14.6324 46.8889,-14.7294 45.6924,-14.8231 44.4327,-14.8764 43.2071,-14.9054 42.1391,-14.9212 41.2275,-14.9298 40.401,-14.9344 39.5889,-14.937 38.6797,-14.9384 37.6424,-14.9391 36.5401,-14.9395 35.4388,-14.9397 34.3677,-14.9399 33.247,-14.9399 32.0331,-14.94 30.7663,-14.9035 29.473,-14.8061 28.2267,-14.7099 27.0723,-14.6484 25.9791,-14.567 24.9877,-14.4475 24.1246,-14.3483 23.3724,-14.2533 22.701,-14.1196 22.0348,-13.967 21.2984,-13.7791 20.492,-13.572 19.7068,-13.3636 18.908,-13.1089 18.0174,-12.7948 17.0542,-12.4437 16.0536,-12.0772 15.0374,-11.7091 14.0103,-11.3402 12.9819,-10.9662 11.9527,-10.5621 10.9232,-10.0983 9.8935,-9.6066 8.8636,-9.1316 7.836,-8.6908 6.8779,-8.2641 6.0262,-7.8017 5.2322,-7.313 4.4674,-6.8533 3.7185,-6.4323 2.9987,-6.0117 2.3426,-5.6005 1.7281,-5.2401 1.1316,-4.898 0.6247,-4.5638 0.2623,-4.2679 -0.0169,-4.0021 -0.5974,-3.7093 -1.5771,-3.3471 -1.055,-1.575 -0.6452,1.2084 Z"/><path d="M2.699,1.4412 T2.0421,2.6433 0.249,5.8329 -2.4211,10.0826 -4.9327,13.5598 -6.9,15.9969 -8.8581,18.4301 -10.7539,20.7789 -12.5439,23.0354 -14.2227,25.2893 -16.4863,28.5391 -19.5309,32.942 -22.6149,37.5694 -25.263,42.1614 -27.2227,46.2709 -28.9838,50.4133 -30.8064,55.1747 -32.3663,59.8312 -33.5997,64.0121 -34.4728,67.8753 -35.1927,71.6123 -36.0023,75.3798 -36.8141,78.9991 -37.2961,82.1227 -37.4478,85.3757 -37.5823,88.7875 -37.6708,92.4867 -37.6906,96.4792 -37.6963,100.1635 -37.3815,103.4415 -36.1952,106.7334 -34.6207,109.9997 -32.5795,111.9637 -29.6571,112.5543 -26.1733,111.7091 -22.7619,110.1646 -19.7777,108.7131 -16.9022,107.416 -13.7508,106.0076 -10.4679,104.7628 -6.9201,104.339 -3.2096,104.2388 -0.0574,104.4322 2.7936,105.1486 5.7543,106.4183 8.6833,107.6861 11.4274,108.4793 13.9873,107.1177 16.5992,103.6999 19.0766,100.8128 21.2937,98.8251 23.9119,97.5999 27.2162,97.1544 30.8292,97.0062 34.1018,96.9341 37.4021,96.9006 40.6671,96.9431 44.2033,97.6473 47.6964,98.9958 50.4935,100.3148 53.1823,101.3883 55.9757,101.9883 58.667,100.6514 61.1816,98.015 63.6711,95.8415 66.2824,94.0626 69.1977,93.1226 72.2838,93.0678 75.2063,93.6916 77.9885,94.9628 80.8572,96.5056 83.7417,97.8121 86.6468,98.5056 89.6848,97.9093 92.9659,95.8446 96.0467,93.4788 98.618,91.6123 100.9739,89.6993 102.892,87.3315 104.8949,84.9047 107.6815,83.5184 110.9575,83.2831 114.3698,83.3213 117.4832,83.5648 120.5925,84.0922 123.6523,84.699 126.4591,84.861 129.1099,83.2489 131.3044,80.2378 133.09,77.0818 134.0676,74.0229 134.2414,70.9585 134.2769,67.8256 134.3108,64.6565 134.3488,61.2382 134.3809,57.7842 134.3677,54.1863 134.0019,50.861 132.9025,47.5346 131.333,43.7722 129.7828,40.2356 128.3764,37.3076 126.9705,34.5677 125.5374,31.7531 123.8217,28.8406 121.6858,25.7196 119.6778,22.9526 117.7499,20.6775 115.5054,18.296 112.981,15.6855 110.3712,13.2193 107.9904,11.0385 105.2995,8.8203 102.3763,6.5333 99.8569,4.5954 97.2791,2.6557 94.3467,0.5757 91.5007,-1.1312 88.6623,-2.5391 85.2573,-3.9963 81.5511,-5.4387 77.7657,-6.7184 73.9674,-7.817 70.3928,-8.6711 67.2381,-9.3133 64.1456,-10.0101 60.7388,-10.4755 57.1197,-10.7118 53.3619,-10.9291 49.3562,-11.0112 45.4667,-11.1576 42.2294,-11.2642 38.9368,-11.2552 35.468,-11.2366 32.085,-11.1997 28.5101,-11.0448 25.1754,-10.7185 22.309,-10.1657 19.4011,-9.2669 16.3142,-8.1636 13.41,-7.0335 10.3944,-5.7293 7.359,-4.1823 4.5963,-2.5494 1.2178,-0.6548 -0.7878,0.4256 A3.8122,3.8122 0 0 1 -3.4322,-6.7256 T-2.9708,-6.8094 -1.251,-7.7498 1.4247,-9.435 4.3698,-11.1122 7.3372,-12.6023 10.4947,-13.9713 13.7389,-15.2529 16.7659,-16.3367 19.9078,-17.2804 23.306,-17.9477 26.7704,-18.3157 29.9432,-18.539 33.154,-18.646 36.5432,-18.638 39.9421,-18.6057 43.487,-18.5328 47.0016,-18.3483 50.1327,-18.2039 53.6487,-18.1423 57.4233,-17.8911 60.5722,-17.6172 63.7573,-17.1812 66.987,-16.4114 70.1316,-15.6588 73.7673,-14.8533 77.7753,-13.8189 81.8616,-12.6146 85.9283,-11.2487 89.8318,-9.7543 93.4332,-8.1727 96.4715,-6.5604 99.1118,-4.901 101.5395,-3.1281 104.1664,-1.1974 107.392,1.1897 110.5633,3.6291 113.4419,6.0293 116.2871,8.6097 119.1455,11.4444 121.6443,14.0928 123.6574,16.3012 125.5279,18.6763 127.5227,21.5123 129.5342,24.5368 131.1008,27.2048 132.5427,29.9312 133.9877,32.7723 135.41,35.6214 137.0737,39.0487 138.9244,43.0736 140.4294,47.0402 141.2633,50.4999 141.5357,54.0713 141.5587,57.7848 141.59,61.2403 141.6252,64.6642 141.6462,68.5091 141.5877,72.4685 141.2766,75.8025 140.2119,79.1622 138.52,82.5432 136.4749,85.9875 133.8687,89.3762 130.6372,91.7137 126.9783,92.635 123.7161,92.548 120.776,91.998 117.5918,91.3409 114.3235,90.9903 110.9063,91.1819 108.0482,92.8977 105.7069,95.3839 103.1189,97.2738 100.4871,99.1703 97.5329,101.6182 93.8221,104.3943 89.757,106.0294 86.0878,106.1318 82.539,105.4565 79.3036,104.267 76.4261,102.7606 73.538,101.2422 70.4868,100.8862 67.7218,102.1702 65.4319,104.2551 62.683,106.8605 59.2748,109.0093 55.8728,109.585 52.7638,109.0095 49.8547,107.9715 47.2323,106.797 44.1982,105.3551 40.8183,104.3464 37.445,104.1588 34.2402,104.1794 31.2058,104.2822 27.7119,104.3812 24.6981,105.3912 22.3506,108.0813 19.7654,111.7377 16.3454,115.0249 12.5799,116.2681 9.3716,115.7924 6.4755,114.9003 3.5619,113.6809 0.2612,112.3444 -3.1204,111.7351 -6.3343,111.8111 -9.5021,112.4081 -12.5416,113.5927 -15.388,114.862 -18.1805,116.1971 -21.109,117.6296 -24.0038,118.9958 -27.3645,119.91 -31.042,120.0091 -34.2228,119.248 -37.1663,117.8074 -39.5295,115.7202 -41.0662,113.1113 -42.4986,110.0017 -43.7365,106.9209 -44.3819,103.8597 -44.6243,100.2288 -44.6595,96.4625 -44.6545,93.0125 -44.5303,89.4948 -44.2599,86.0318 -43.9806,82.9581 -43.5187,79.4499 -42.7094,75.6974 -41.8075,72.1373 -40.9692,68.4493 -40.0176,64.4333 -38.7843,60.1595 -37.2711,55.5939 -35.4467,50.5456 -33.5059,45.8016 -31.4777,41.6669 -29.7185,38.3337 -28.2522,35.6645 -26.642,33.0765 -24.2722,29.644 -21.197,25.2661 -18.8087,21.8969 -17.0436,19.4955 -15.2606,17.2094 -13.4467,14.8711 -11.5698,12.3598 -9.7815,9.9742 -7.5435,6.7428 -5.0575,2.8069 -3.3325,-0.2265 -2.699,-1.4412 A3.0597,3.0597 0 0 1 2.699,1.4412 Z" stroke-linecap="round" fill="#1d1d1d"/></g></g><g transform="matrix(1, 0, 0, 1, 10893.3965, -892.3884)" opacity="1"><g transform="scale(1)"><path d="M3.3468,0 T3.3297,1.1947 3.2559,4.3565 2.93,8.0834 2.5861,11.7617 2.4048,15.4619 2.1333,18.9326 1.6646,22.3632 0.9764,25.768 0.2142,29.0419 -0.4954,32.0452 -1.1853,34.8368 -2.0126,38.0439 -3.0501,41.5732 -4.152,44.9398 -5.3478,48.0405 -6.7119,51.0104 -8.0893,54.1119 -9.4752,57.1325 -10.7952,60.0085 -11.959,62.9062 -12.9138,65.9836 -13.59,69.4068 -13.9274,72.9928 -13.77,76.3942 -12.988,79.5929 -11.701,82.6168 -10.1283,85.5734 -8.2135,88.5757 -6.2633,91.1997 -4.1737,93.3615 -1.5723,95.3581 1.1131,96.8985 3.9283,98.0041 7.4293,98.9558 11.2497,99.6617 15.3497,100.2564 19.9555,100.7185 24.3777,100.9235 28.0152,100.9646 31.0794,100.9259 34.3565,100.8542 37.6254,100.7836 40.7891,100.7415 44.2317,100.5893 47.7884,100.1953 51.3385,99.602 55.0054,98.9234 58.5978,98.1794 61.7089,97.3834 64.9588,96.318 68.102,95.1419 71.1013,93.986 74.3722,92.7674 77.4086,91.5733 80.1961,90.3287 82.8223,89.1682 85.5476,87.9816 88.1714,86.5803 90.4494,84.8983 92.5049,82.8879 94.3242,80.5245 96.134,77.6985 97.8801,74.6844 99.3675,71.8521 100.6631,68.8362 101.3646,65.6155 101.2754,62.5936 100.2555,59.7694 98.507,57.1109 96.5775,54.4905 94.5739,52.0551 92.4022,49.9007 90.1862,47.7617 88.0268,45.4116 86.0861,42.853 84.5818,40.1467 83.2379,37.3389 81.9854,34.5911 80.8584,31.7166 79.9591,28.7827 79.2197,25.7541 78.4467,22.6491 77.8671,19.6986 77.4632,16.8114 77.0249,13.7898 76.6386,10.413 76.3945,7.1579 76.3161,4.2822 76.306,1.3575 76.3105,-1.7046 76.3154,-4.6667 76.3609,-7.5158 76.6353,-10.6069 76.8614,-12.2677 A3.9705,3.9705 0 0 1 84.7786,-11.6523 T84.6087,-10.1422 84.3412,-7.0186 84.2435,-3.9904 84.2511,-1.0462 84.2543,1.9038 84.2494,4.883 84.3975,7.9778 84.7118,10.9568 85.1317,14.2118 85.5484,17.478 86.1436,20.591 86.9593,23.8467 87.7908,26.9935 88.7893,30.0106 90.036,33.0295 91.5372,36.1837 93.1944,38.9595 95.0222,41.2575 97.0684,43.4405 99.2666,45.4675 101.3789,47.7469 103.1976,50.1856 104.8904,52.4735 106.5321,54.8912 108.0842,57.6914 109.097,61.0124 109.3288,64.2677 109.1392,67.2438 108.5268,70.1659 107.4672,72.9472 106.172,75.6114 104.8366,78.1447 103.4396,80.5856 101.7525,83.3584 99.963,86.0558 97.9548,88.4059 95.6554,90.5504 93.3587,92.2859 90.9309,93.8162 88.1826,95.1586 85.2725,96.3834 82.4508,97.6631 79.3855,98.9114 76.058,100.0648 72.6306,101.3454 69.491,102.6006 66.691,103.6756 63.3705,104.7005 59.6244,105.5873 56.1958,106.2268 53.1558,106.7433 50.0859,107.2162 47.0073,107.655 44.0014,107.9469 40.789,107.9985 37.6249,107.9562 34.352,107.8845 31.0605,107.8054 27.9639,107.7424 24.241,107.7048 19.4861,107.6439 14.5344,107.4088 10.1774,106.9908 6.5607,106.473 3.0311,105.6617 -0.2037,104.6035 -3.056,103.3421 -6.033,101.5803 -8.6334,99.5188 -11.0031,97.1668 -13.2312,94.3619 -15.2264,91.4426 -16.8827,88.7043 -18.2324,86.1637 -19.5535,83.1547 -20.6942,79.7539 -21.3153,76.397 -21.4074,72.5914 -21.1693,69.0973 -20.7765,66.2787 -20.147,63.3557 -19.0657,60.0398 -17.7722,56.7716 -16.4045,53.8271 -15.0797,50.9856 -13.8865,48.2985 -12.5519,45.3866 -11.2731,42.1983 -10.193,39.0195 -9.2593,35.9063 -8.4024,32.714 -7.553,29.5674 -6.8074,26.7206 -6.0075,23.6103 -5.233,20.2424 -4.6959,17.0821 -4.3772,13.7719 -4.1268,10.3805 -3.7133,7.3109 -3.379,4.1273 -3.3297,1.1947 -3.3468,0 A3.3468,3.3468 0 0 1 3.3468,0 Z" stroke-linecap="round" fill="#1d1d1d"/></g></g></svg>